<svg version="1.1" id="Layer_1" xmlns="http://www.w3.org/2000/svg" xmlns:xlink="http://www.w3.org/1999/xlink" x="0px" y="0px"
	 width="100%" viewBox="0 0 112 111" enable-background="new 0 0 112 111" xml:space="preserve">
<path fill="#FBFCF9" opacity="1.000000" stroke="none" 
	d="
M113.000000,41.000000 
	C113.000000,53.020893 113.000000,65.041786 112.623947,77.575684 
	C107.203094,80.088295 109.292725,84.499008 109.062439,87.991684 
	C108.712433,93.299995 105.813881,96.750244 100.859520,96.991348 
	C96.958733,97.181168 94.561592,98.194214 95.714676,103.038605 
	C96.382271,105.843376 95.398903,108.374550 91.382164,106.983078 
	C90.488068,106.673355 89.319923,106.914398 88.335945,107.147087 
	C84.544342,108.043716 80.776245,109.039787 77.045715,109.628082 
	C78.352020,108.499771 79.716087,107.870346 80.846169,106.952751 
	C82.327049,105.750320 83.623238,104.320442 85.346420,102.940018 
	C91.033485,99.397476 91.117424,98.183891 86.637917,93.837296 
	C85.532944,92.765114 84.810822,91.298386 84.280762,89.862617 
	C86.201080,89.392700 87.753342,89.073189 89.641815,88.814041 
	C90.972321,89.381088 91.917793,90.111404 92.972458,90.341698 
	C94.525871,90.680878 96.447578,91.241974 97.669807,90.628143 
	C98.790169,90.065468 100.003883,87.833763 99.693489,86.770294 
	C99.344971,85.576233 97.333214,84.867630 95.741341,83.804222 
	C93.159622,81.788284 90.881630,79.915955 88.978233,77.900635 
	C95.534576,73.349098 101.433174,78.295219 109.094078,78.775459 
	C107.246193,75.592438 105.974899,73.402611 104.520920,71.168587 
	C104.338226,71.124382 104.019096,70.925697 103.963295,70.573822 
	C98.866821,68.063995 93.826157,65.906029 88.785492,63.748070 
	C91.760262,62.962067 94.689125,63.192375 97.551567,62.856556 
	C98.819176,62.707836 99.952377,61.413471 101.543503,60.513496 
	C103.611389,60.386024 105.282349,60.384232 107.019012,60.661301 
	C107.923653,60.525475 108.762596,60.110794 109.601532,59.696110 
	C109.134865,58.765327 108.668205,57.834549 108.144638,56.966827 
	C108.087730,57.029888 107.922768,57.070484 107.865372,56.761673 
	C107.253212,56.241776 106.698433,56.030685 105.817894,55.783497 
	C105.055481,55.730957 104.618843,55.714516 103.924042,55.475140 
	C102.773582,55.061768 101.881279,54.871330 100.931152,54.330753 
	C98.507301,52.194698 96.141266,50.408783 94.043457,48.417278 
	C95.822006,47.769638 97.332352,47.327579 99.221939,46.936790 
	C100.761765,46.391659 101.922340,45.795258 103.341492,45.094757 
	C103.959915,44.903172 104.319763,44.815678 105.071999,44.760456 
	C105.710197,42.970882 105.956009,41.149040 106.201828,39.327194 
	C103.708290,39.197433 101.077408,38.500042 98.751457,39.062874 
	C94.638336,40.058151 90.710800,41.820385 85.907654,43.548756 
	C86.844559,40.811447 87.359787,39.306122 88.021782,37.713890 
	C88.168549,37.626987 88.502800,37.558754 88.891518,37.668823 
	C92.261589,37.077164 95.412651,36.585831 95.939339,32.338638 
	C96.772568,30.377731 97.394142,28.656614 97.963089,26.579445 
	C93.234985,24.285839 87.219604,27.540758 84.956520,33.343819 
	C84.577644,33.759731 84.300819,33.907570 83.748901,33.919983 
	C83.515991,33.863544 83.046989,33.764118 83.031471,33.407143 
	C82.651436,31.670410 82.286911,30.290655 82.080704,28.619045 
	C83.841415,26.216625 85.443817,24.106056 87.411552,21.992195 
	C90.575165,20.415913 93.373436,18.842928 96.171715,17.269941 
	C96.128937,17.715662 96.086159,18.161385 96.043381,18.607105 
	C98.268875,19.087557 100.562744,19.369780 102.699722,20.106861 
	C104.650810,20.779825 106.770157,21.589954 108.218056,22.967451 
	C111.289467,25.889524 111.554184,29.474987 109.803116,33.393509 
	C108.246849,36.876137 108.475098,39.921741 113.000000,41.000000 
z"/>
<path fill="#FCFEFC" opacity="1.000000" stroke="none" 
	d="
M35.000000,112.000000 
	C23.736967,112.000000 12.473936,112.000000 1.000000,112.000000 
	C1.000000,99.979927 1.000000,87.958618 1.371748,75.544083 
	C2.675422,77.681961 3.607348,80.213089 4.539273,82.744209 
	C4.963075,82.722633 5.386878,82.701057 5.810679,82.679482 
	C6.528998,80.568581 7.247317,78.457687 8.249791,76.248955 
	C9.699764,75.856972 10.865582,75.562820 12.200163,75.490112 
	C12.911852,75.809036 13.454781,75.906517 14.161980,76.241661 
	C14.866017,76.641815 15.405783,76.804306 16.323473,76.977280 
	C17.796894,77.644867 18.892391,78.301971 19.633007,79.013550 
	C17.105379,80.451332 14.593919,81.511581 12.868119,83.321136 
	C11.511828,84.743256 10.265875,87.255371 10.594728,88.972275 
	C10.835548,90.229568 13.789885,91.903847 15.395255,91.766106 
	C18.638317,91.487869 22.899940,92.084351 23.760323,86.999611 
	C23.873375,86.331482 25.531157,85.924736 26.473488,85.396935 
	C26.721947,86.511513 27.373577,87.729355 27.120970,88.715599 
	C26.773298,90.072975 25.805788,91.298599 24.988586,92.502441 
	C23.720165,94.370995 22.354589,96.173599 20.663727,98.069275 
	C20.454199,100.287712 20.611143,102.441025 20.768087,104.594337 
	C22.178850,104.064613 23.589611,103.534882 25.331911,102.997940 
	C26.105572,102.985619 26.547695,102.980522 27.196058,103.266693 
	C29.174234,106.601364 30.517792,110.149750 34.997726,110.334091 
	C34.998554,111.111519 34.999275,111.555756 35.000000,112.000000 
z"/>
<path fill="#FEFFFE" opacity="1.000000" stroke="none" 
	d="
M113.000000,40.531342 
	C108.475098,39.921741 108.246849,36.876137 109.803116,33.393509 
	C111.554184,29.474987 111.289467,25.889524 108.218056,22.967451 
	C106.770157,21.589954 104.650810,20.779825 102.699722,20.106861 
	C100.562744,19.369780 98.268875,19.087557 96.043381,18.607105 
	C96.086159,18.161385 96.128937,17.715662 96.171715,17.269941 
	C93.373436,18.842928 90.575165,20.415913 87.388252,21.742292 
	C86.999878,21.328363 87.000137,21.161039 87.259216,20.778263 
	C87.999306,19.060534 88.480576,17.558256 88.969131,15.676847 
	C86.984283,10.531809 84.992142,5.765903 83.000000,0.999999 
	C92.937073,1.000000 102.874153,1.000000 113.000000,1.000000 
	C113.000000,14.020287 113.000000,27.041485 113.000000,40.531342 
z"/>
<path fill="#FEFFFE" opacity="1.000000" stroke="none" 
	d="
M1.000000,26.000000 
	C1.000000,17.743414 1.000000,9.486829 1.000000,1.000000 
	C8.352580,1.000000 15.707554,1.000000 23.569096,1.362063 
	C25.659554,3.090078 27.243443,4.456031 28.827332,5.821984 
	C29.551556,4.214656 30.275778,2.607328 31.000000,1.000000 
	C32.066669,1.000000 33.133339,1.000000 34.593941,1.387993 
	C34.561077,2.822445 33.973560,3.833723 33.735455,4.921484 
	C32.732281,9.504375 31.582670,13.136841 25.329918,10.544473 
	C23.557207,9.809513 20.932283,11.989405 23.057373,15.431130 
	C23.033634,17.233166 23.037800,18.620123 22.621624,20.004702 
	C19.800652,20.334602 17.400019,20.666883 14.739151,20.717583 
	C12.550864,20.079870 10.577664,19.307180 8.710158,19.509604 
	C7.398744,19.651749 6.231315,21.122282 4.652116,22.060822 
	C3.203096,23.414684 2.101548,24.707342 1.000000,26.000000 
z"/>
<path fill="#FCFBF5" opacity="1.000000" stroke="none" 
	d="
M82.531342,0.999999 
	C84.992142,5.765903 86.984283,10.531809 88.668991,15.512163 
	C84.109863,12.091494 83.324234,12.213425 80.617889,16.838770 
	C79.789459,18.254620 78.877151,19.621389 77.705368,21.133106 
	C75.527786,20.997099 74.320656,25.727955 71.980995,21.657087 
	C71.682076,20.554989 71.373878,19.784126 71.092316,18.644341 
	C71.959389,15.287570 72.799828,12.299724 73.714874,8.938801 
	C73.063477,8.218616 72.337471,7.871510 71.281853,7.502975 
	C69.617958,9.641967 68.283676,11.802384 66.592255,14.043415 
	C65.188728,18.420643 64.142342,22.717260 63.095520,27.352230 
	C63.158813,28.362268 63.222553,29.033955 63.194221,30.067616 
	C63.078491,30.924835 63.054836,31.420076 62.820648,32.195072 
	C61.707077,32.647663 60.804039,32.820499 59.863449,32.691246 
	C59.269279,31.894329 58.712658,31.399506 58.112015,30.444035 
	C58.074478,22.660748 58.080975,15.338109 58.337181,7.797043 
	C59.082283,4.073330 57.051533,3.159695 54.066711,2.832271 
	C54.027092,1.977620 54.013546,1.488810 54.000000,1.000000 
	C63.354229,1.000000 72.708458,1.000000 82.531342,0.999999 
z"/>
<path fill="#FEFFFE" opacity="1.000000" stroke="none" 
	d="
M76.999390,109.998779 
	C80.776245,109.039787 84.544342,108.043716 88.335945,107.147087 
	C89.319923,106.914398 90.488068,106.673355 91.382164,106.983078 
	C95.398903,108.374550 96.382271,105.843376 95.714676,103.038605 
	C94.561592,98.194214 96.958733,97.181168 100.859520,96.991348 
	C105.813881,96.750244 108.712433,93.299995 109.062439,87.991684 
	C109.292725,84.499008 107.203094,80.088295 112.623947,78.044342 
	C113.000000,89.262016 113.000000,100.524040 113.000000,112.000000 
	C101.313309,112.000000 89.625313,112.000000 77.468018,111.666473 
	C76.998947,110.888222 76.999168,110.443504 76.999390,109.998779 
z"/>
<path fill="#FBFCF7" opacity="1.000000" stroke="none" 
	d="
M1.000000,26.468657 
	C2.101548,24.707342 3.203096,23.414684 4.987565,22.108938 
	C7.155647,23.742941 8.640808,25.390032 10.106246,27.399431 
	C10.969810,31.662359 13.430818,33.597610 17.702841,33.761841 
	C18.966375,34.655304 19.937521,35.428028 20.916157,36.498299 
	C20.965630,37.190384 21.007614,37.584919 20.766079,38.211365 
	C20.314495,39.644276 20.146425,40.845287 19.611607,41.996048 
	C15.830488,41.283352 12.416120,40.620899 8.669645,39.974373 
	C7.894731,40.011387 7.451921,40.032478 6.810781,39.781441 
	C6.458791,39.451637 6.269118,39.304230 6.156707,39.349339 
	C2.795942,40.698082 3.215150,44.275204 5.049226,44.988586 
	C11.499655,47.497543 18.340048,49.003914 25.385807,50.893066 
	C26.437893,50.820446 27.136629,50.745502 27.880787,51.082180 
	C27.950424,52.597649 27.974642,53.701500 27.814705,54.889507 
	C27.365566,55.063438 27.152229,55.222473 26.583286,55.509644 
	C24.806171,55.541069 23.436314,55.513615 21.904806,55.140160 
	C16.493826,54.965702 11.244495,55.137241 5.718068,55.310959 
	C5.076753,55.365650 4.712534,55.418156 3.942367,55.347782 
	C2.690945,55.149937 1.845472,55.074966 1.000000,55.000000 
	C1.000000,45.645771 1.000000,36.291542 1.000000,26.468657 
z"/>
<path fill="#FCFBF6" opacity="1.000000" stroke="none" 
	d="
M53.531731,1.000000 
	C54.013546,1.488810 54.027092,1.977620 54.011700,3.122177 
	C52.996452,7.584938 51.804989,11.357080 51.148350,15.220132 
	C50.950329,16.385101 52.237434,17.802509 52.877651,19.505238 
	C52.883717,21.244980 52.856373,22.583771 52.451439,23.936617 
	C48.020241,24.210382 48.139400,20.560547 47.082203,18.293495 
	C45.692707,15.313850 45.079521,11.974969 43.723118,8.975712 
	C43.197304,7.813037 42.284000,4.451495 39.704536,7.984941 
	C38.945210,8.384503 38.461437,8.691888 37.610542,9.061586 
	C36.907574,10.437184 36.002735,11.921557 36.337036,13.033335 
	C37.601852,17.239731 39.398319,21.285213 40.694752,25.483879 
	C41.023346,26.548063 40.238144,27.956158 39.674606,29.017609 
	C36.635101,25.009398 33.661743,21.327477 31.203808,17.328737 
	C29.050140,13.825008 26.836742,12.149030 23.085276,15.016052 
	C20.932283,11.989405 23.557207,9.809513 25.329918,10.544473 
	C31.582670,13.136841 32.732281,9.504375 33.735455,4.921484 
	C33.973560,3.833723 34.561077,2.822445 34.993935,1.387993 
	C41.021152,1.000000 47.042305,1.000000 53.531731,1.000000 
z"/>
<path fill="#FCFBF4" opacity="1.000000" stroke="none" 
	d="
M77.045715,109.628082 
	C76.999168,110.443504 76.998947,110.888222 76.999359,111.666473 
	C70.645599,112.000000 64.291206,112.000000 57.470531,111.723663 
	C57.036205,111.080574 57.068153,110.713814 57.301083,110.149490 
	C57.715958,109.646240 57.929855,109.340561 58.302074,108.943626 
	C58.521446,108.747856 58.657093,108.613930 58.629642,108.544312 
	C58.545383,108.330612 58.398613,108.141556 58.242371,107.483215 
	C58.297848,102.693703 58.387096,98.363907 58.851860,94.024780 
	C60.501686,94.008148 61.775993,94.000847 63.096794,94.355682 
	C64.401787,96.828049 65.660278,98.938286 67.019165,101.352211 
	C67.257561,102.280190 67.395546,102.904480 67.384872,103.902916 
	C67.848701,105.161850 68.461197,106.046631 69.037468,106.966019 
	C69.001244,107.000626 69.069382,106.928040 69.088142,107.278839 
	C70.671188,109.564995 72.023735,109.792397 73.083878,106.697464 
	C72.977982,103.874496 72.808060,101.498611 72.976562,98.933342 
	C75.221428,98.159782 77.127869,97.575623 79.235687,97.259598 
	C81.291000,99.347954 83.144936,101.168182 84.998871,102.988403 
	C83.623238,104.320442 82.327049,105.750320 80.846169,106.952751 
	C79.716087,107.870346 78.352020,108.499771 77.045715,109.628082 
z"/>
<path fill="#FCFBF4" opacity="1.000000" stroke="none" 
	d="
M7.965636,76.346786 
	C7.247317,78.457687 6.528998,80.568581 5.810679,82.679482 
	C5.386878,82.701057 4.963075,82.722633 4.539273,82.744209 
	C3.607348,80.213089 2.675422,77.681961 1.371748,75.075424 
	C1.000000,70.643097 1.000000,66.286201 1.424428,61.442505 
	C4.610710,61.291180 7.367905,61.861641 10.135323,61.916508 
	C17.421253,62.060966 24.711628,61.981312 31.963058,62.349747 
	C31.925884,64.639648 31.925884,66.570717 31.925884,68.807671 
	C31.480820,68.838654 30.681694,68.894295 29.899078,68.572449 
	C29.507154,64.491470 27.141312,63.482098 23.952625,64.263046 
	C19.226479,65.420540 14.495073,66.655632 9.926906,68.303886 
	C8.385246,68.860146 7.333280,70.773590 6.028219,72.035187 
	C5.998927,72.003616 6.067834,72.054703 5.722641,72.067505 
	C3.456022,73.621193 3.726694,74.558525 6.313409,75.079453 
	C6.970205,75.620193 7.467920,75.983490 7.965636,76.346786 
z"/>
<path fill="#FBFDF8" opacity="1.000000" stroke="none" 
	d="
M52.000000,112.000000 
	C49.957684,112.000000 47.915363,112.000000 45.478184,111.624168 
	C46.084190,108.805084 46.524761,106.680504 42.715324,106.627335 
	C43.508022,104.174606 44.252697,102.095009 45.342773,99.966705 
	C46.456802,98.279015 47.225437,96.640038 48.402824,95.001495 
	C50.169697,95.007195 51.527817,95.012444 53.010971,95.421227 
	C53.131214,98.813667 53.126427,101.802582 52.867950,104.827888 
	C52.048435,105.236580 51.482613,105.608879 50.611023,106.033371 
	C50.835915,107.053040 51.366566,108.020515 51.938000,109.362823 
	C51.985855,110.491768 51.992928,111.245888 52.000000,112.000000 
z"/>
<path fill="#FCDBB6" opacity="1.000000" stroke="none" 
	d="
M32.000233,61.990913 
	C24.711628,61.981312 17.421253,62.060966 10.135323,61.916508 
	C7.367905,61.861641 4.610710,61.291180 1.424428,60.977859 
	C1.000000,59.285641 1.000000,57.571285 1.000000,55.428463 
	C1.845472,55.074966 2.690945,55.149937 3.799716,55.639214 
	C2.429841,59.501350 4.069041,60.188080 7.575173,59.766327 
	C18.010794,59.783806 27.994717,59.715645 38.374107,59.757492 
	C39.851589,59.988392 40.933605,60.109291 42.013420,60.514404 
	C42.008209,61.178555 42.005203,61.558487 41.668243,61.950207 
	C40.889050,61.977013 40.443806,61.992027 39.554672,61.992676 
	C36.740597,61.982513 34.370415,61.986717 32.000233,61.990913 
z"/>
<path fill="#FEF9EE" opacity="1.000000" stroke="none" 
	d="
M42.667305,107.000465 
	C46.524761,106.680504 46.084190,108.805084 45.041660,111.624168 
	C41.969406,112.000000 38.938812,112.000000 35.454109,112.000000 
	C34.999275,111.555756 34.998554,111.111519 35.066872,109.969437 
	C36.191170,108.805672 37.246429,108.339760 38.632553,107.851944 
	C40.198040,107.553513 41.432674,107.276985 42.667305,107.000465 
z"/>
<path fill="#FCFBF6" opacity="1.000000" stroke="none" 
	d="
M30.562500,1.000000 
	C30.275778,2.607328 29.551556,4.214656 28.827332,5.821984 
	C27.243443,4.456031 25.659554,3.090078 24.037832,1.362063 
	C26.041666,1.000000 28.083334,1.000000 30.562500,1.000000 
z"/>
<path fill="#FDE1BF" opacity="1.000000" stroke="none" 
	d="
M52.416664,112.000000 
	C51.992928,111.245888 51.985855,110.491768 52.199226,109.358383 
	C52.592903,108.987846 52.766136,108.996590 53.275318,109.151154 
	C54.774216,109.647011 55.937160,109.997032 57.100105,110.347054 
	C57.068153,110.713814 57.036205,111.080574 57.002129,111.723663 
	C55.611111,112.000000 54.222218,112.000000 52.416664,112.000000 
z"/>
<path fill="#FDF9EC" opacity="1.000000" stroke="none" 
	d="
M79.034302,96.991455 
	C77.127869,97.575623 75.221428,98.159782 72.668594,98.780762 
	C71.001587,96.226707 69.980972,93.635849 68.991676,90.653442 
	C68.344528,88.199936 67.666054,86.137970 67.035751,83.733513 
	C67.956673,82.564407 68.829414,81.737785 69.516411,81.087097 
	C67.978210,74.906509 63.459423,74.498505 58.344028,74.603653 
	C58.260632,72.468262 58.290134,70.749268 58.504341,68.828766 
	C58.779037,68.092323 58.869022,67.557396 59.327637,66.973694 
	C60.269703,65.542702 61.547611,64.006866 61.285942,62.806709 
	C60.464844,59.040707 61.690395,56.615597 65.033401,55.286999 
	C65.101891,55.749695 65.147621,55.931793 64.983963,56.475212 
	C64.548698,61.202534 64.322823,65.568535 64.052109,70.226814 
	C64.658249,70.814713 65.309219,71.110344 66.358627,71.403427 
	C67.790077,71.170914 68.823097,70.940956 69.906387,71.140427 
	C70.335846,77.789673 70.732147,78.053909 78.283798,77.158386 
	C78.630295,77.534332 78.819611,77.757889 79.026169,78.334122 
	C80.166267,80.018051 81.195663,81.448776 82.449127,82.644638 
	C84.662643,84.756424 87.012703,86.725105 89.305611,88.753685 
	C87.753342,89.073189 86.201080,89.392700 84.010529,89.741714 
	C82.636520,89.494438 81.900787,89.217659 81.075493,88.602196 
	C78.831032,85.491325 76.676132,82.719139 74.646393,80.107971 
	C68.854538,82.323769 72.477112,85.003571 73.326019,87.876999 
	C74.176491,89.162247 75.155624,90.042625 76.357101,91.071518 
	C76.824547,91.685776 77.069641,92.151520 77.239616,92.961700 
	C77.787766,94.534569 78.411034,95.763016 79.034302,96.991455 
z"/>
<path fill="#DE863E" opacity="1.000000" stroke="none" 
	d="
M69.856125,70.710991 
	C68.823097,70.940956 67.790077,71.170914 66.268326,71.090149 
	C65.218712,70.497795 64.657829,70.216171 64.096947,69.934540 
	C64.322823,65.568535 64.548698,61.202534 65.250847,56.385868 
	C65.889351,55.839836 66.051598,55.744473 66.594604,55.653141 
	C68.251930,55.666588 69.528496,55.676006 71.214355,55.821571 
	C72.467651,55.865864 73.311646,55.774014 74.435959,55.688309 
	C75.090012,55.686890 75.463737,55.679333 76.207649,55.746563 
	C76.820854,55.755508 77.063866,55.689671 77.697174,55.645836 
	C79.653374,55.670067 81.219261,55.672298 83.145378,55.758484 
	C83.745682,55.786217 83.985764,55.729988 84.666061,55.698586 
	C88.362297,55.717194 91.618340,55.710983 95.289429,55.827240 
	C96.844078,55.869091 97.983665,55.788475 99.399727,55.714470 
	C100.044670,55.711926 100.413147,55.702774 101.198257,55.821526 
	C102.470657,55.865643 103.326431,55.781860 104.182198,55.698074 
	C104.618843,55.714516 105.055481,55.730957 105.917297,56.065300 
	C106.869240,56.612293 107.396004,56.841389 107.922768,57.070484 
	C107.922768,57.070484 108.087730,57.029888 108.035431,57.323719 
	C107.639854,58.539181 107.296577,59.460808 106.953308,60.382439 
	C105.282349,60.384232 103.611389,60.386024 101.095444,60.316376 
	C94.469154,60.350468 88.687859,60.456005 82.520699,60.426697 
	C80.806938,60.450520 79.479034,60.609196 77.784164,60.573608 
	C76.893967,60.504139 76.370750,60.628929 75.496323,60.604080 
	C73.874031,60.445728 72.602959,60.437016 70.969833,60.326969 
	C70.274513,60.948631 69.941261,61.671627 69.551918,62.775002 
	C69.615921,65.673920 69.736023,68.192459 69.856125,70.710991 
z"/>
<path fill="#FDE9D0" opacity="1.000000" stroke="none" 
	d="
M82.906570,60.561543 
	C88.687859,60.456005 94.469154,60.350468 100.698517,60.442055 
	C99.952377,61.413471 98.819176,62.707836 97.551567,62.856556 
	C94.689125,63.192375 91.760262,62.962067 88.785492,63.748070 
	C93.826157,65.906029 98.866821,68.063995 103.585846,70.596817 
	C98.260277,69.311256 93.301857,67.484253 88.223389,66.096626 
	C86.786339,65.703972 84.998566,66.594887 83.371643,66.897125 
	C84.411102,68.129601 85.215126,69.984886 86.532272,70.482811 
	C91.305038,72.287071 96.266121,73.586449 101.125175,75.171265 
	C105.410828,76.569069 105.805260,74.605049 104.703606,71.212791 
	C105.974899,73.402611 107.246193,75.592438 109.094078,78.775459 
	C101.433174,78.295219 95.534576,73.349098 88.708412,77.730194 
	C86.737183,77.036034 85.410378,76.369324 83.983551,75.381752 
	C82.880196,74.595665 81.876884,74.130440 80.968185,73.320358 
	C81.677399,68.837524 82.291985,64.699532 82.906570,60.561543 
M88.127060,73.265640 
	C87.573509,73.404160 87.019966,73.542679 86.466415,73.681198 
	C86.660416,74.046738 86.854424,74.412277 87.048431,74.777817 
	C87.554863,74.421280 88.061287,74.064751 88.127060,73.265640 
z"/>
<path fill="#E18F4E" opacity="1.000000" stroke="none" 
	d="
M104.520920,71.168587 
	C105.805260,74.605049 105.410828,76.569069 101.125175,75.171265 
	C96.266121,73.586449 91.305038,72.287071 86.532272,70.482811 
	C85.215126,69.984886 84.411102,68.129601 83.371643,66.897125 
	C84.998566,66.594887 86.786339,65.703972 88.223389,66.096626 
	C93.301857,67.484253 98.260277,69.311256 103.641647,70.948685 
	C104.019096,70.925697 104.338226,71.124382 104.520920,71.168587 
z"/>
<path fill="#FBE3C5" opacity="1.000000" stroke="none" 
	d="
M87.875015,37.800797 
	C87.359787,39.306122 86.844559,40.811447 85.907654,43.548756 
	C90.710800,41.820385 94.638336,40.058151 98.751457,39.062874 
	C101.077408,38.500042 103.708290,39.197433 106.201828,39.327194 
	C105.956009,41.149040 105.710197,42.970882 105.169022,44.458481 
	C105.977943,40.813961 104.856766,39.640995 101.519981,40.674618 
	C96.450050,42.245117 91.386833,43.837425 86.325165,45.434429 
	C82.932503,46.504848 82.573944,48.305843 84.976089,51.024384 
	C84.590767,51.513451 84.308876,51.743446 83.730331,51.820839 
	C81.968910,49.782124 80.504135,47.896008 79.039215,45.609146 
	C79.024567,44.141186 79.010078,43.073971 79.118553,41.885315 
	C79.241524,41.763870 79.482483,41.516037 79.804253,41.581001 
	C82.709015,40.364243 85.292007,39.082520 87.875015,37.800797 
z"/>
<path fill="#E08F51" opacity="1.000000" stroke="none" 
	d="
M85.079529,50.765308 
	C82.573944,48.305843 82.932503,46.504848 86.325165,45.434429 
	C91.386833,43.837425 96.450050,42.245117 101.519981,40.674618 
	C104.856766,39.640995 105.977943,40.813961 104.776627,44.426208 
	C104.319763,44.815678 103.959915,44.903172 103.003952,45.037590 
	C101.219460,45.684853 100.031075,46.285191 98.842690,46.885525 
	C97.332352,47.327579 95.822006,47.769638 93.665512,48.440933 
	C92.031525,48.898132 91.043709,49.126087 89.741882,49.298775 
	C88.782829,49.724754 88.137772,50.205994 87.189957,50.676804 
	C86.284637,50.699352 85.682083,50.732330 85.079529,50.765308 
z"/>
<path fill="#DC8E4B" opacity="1.000000" stroke="none" 
	d="
M88.021774,37.713890 
	C85.292007,39.082520 82.709015,40.364243 79.725983,41.250748 
	C80.877892,38.562496 82.429855,36.269463 83.981812,33.976425 
	C84.300819,33.907570 84.577644,33.759731 85.301483,33.290268 
	C89.865692,31.010254 93.940704,28.972878 98.015717,26.935499 
	C97.394142,28.656614 96.772568,30.377731 95.595032,32.398033 
	C92.860313,34.317730 90.681557,35.938244 88.502800,37.558754 
	C88.502800,37.558754 88.168549,37.626987 88.021774,37.713890 
z"/>
<path fill="#DF8E4E" opacity="1.000000" stroke="none" 
	d="
M84.083580,75.702606 
	C85.410378,76.369324 86.737183,77.036034 88.333809,77.873184 
	C90.881630,79.915955 93.159622,81.788284 95.849556,84.144516 
	C96.884026,85.788574 97.506561,86.948723 98.129089,88.108879 
	C97.789207,88.507645 97.449333,88.906410 97.109451,89.305176 
	C95.479340,88.571411 93.718208,88.036774 92.243607,87.066628 
	C87.774963,84.126663 83.417290,81.018044 79.016380,77.975128 
	C78.819611,77.757889 78.630295,77.534332 78.430397,76.860062 
	C78.965019,75.726654 79.517670,75.037643 80.177895,74.739746 
	C81.551514,75.321434 82.817543,75.512016 84.083580,75.702606 
z"/>
<path fill="#FFF4DE" opacity="1.000000" stroke="none" 
	d="
M90.055885,49.354042 
	C91.043709,49.126087 92.031525,48.898132 93.397293,48.646519 
	C96.141266,50.408783 98.507301,52.194698 100.879593,54.584934 
	C100.851105,55.357376 100.816360,55.525497 100.781624,55.693619 
	C100.413147,55.702774 100.044670,55.711926 99.146133,55.502529 
	C97.368835,55.424244 96.121605,55.564507 94.874374,55.704773 
	C91.618340,55.710983 88.362297,55.717194 84.610947,55.459423 
	C84.115631,55.195438 84.009880,54.713661 84.001541,54.371483 
	C84.004471,53.344017 84.015732,52.658726 84.026985,51.973442 
	C84.308876,51.743446 84.590767,51.513451 84.976089,51.024384 
	C85.682083,50.732330 86.284637,50.699352 87.531555,50.755074 
	C88.802574,50.347198 89.429230,49.850620 90.055885,49.354042 
z"/>
<path fill="#FCE0BE" opacity="1.000000" stroke="none" 
	d="
M79.235687,97.259590 
	C78.411034,95.763016 77.787766,94.534569 77.548378,93.097107 
	C80.077972,95.516113 82.223694,98.144142 84.369415,100.772163 
	C84.890610,100.609337 85.411804,100.446503 85.932999,100.283676 
	C85.454865,98.459969 85.183334,96.547188 84.445328,94.835526 
	C83.559547,92.781120 82.276230,90.898117 81.165054,88.940887 
	C81.900787,89.217659 82.636520,89.494438 83.642487,89.892120 
	C84.810822,91.298386 85.532944,92.765114 86.637917,93.837296 
	C91.117424,98.183891 91.033485,99.397476 85.346420,102.940018 
	C83.144936,101.168182 81.291000,99.347954 79.235687,97.259590 
z"/>
<path fill="#F7D3AC" opacity="1.000000" stroke="none" 
	d="
M79.026169,78.334122 
	C83.417290,81.018044 87.774963,84.126663 92.243607,87.066628 
	C93.718208,88.036774 95.479340,88.571411 97.109451,89.305176 
	C97.449333,88.906410 97.789207,88.507645 98.129089,88.108879 
	C97.506561,86.948723 96.884026,85.788574 96.153282,84.288116 
	C97.333214,84.867630 99.344971,85.576233 99.693489,86.770294 
	C100.003883,87.833763 98.790169,90.065468 97.669807,90.628143 
	C96.447578,91.241974 94.525871,90.680878 92.972458,90.341698 
	C91.917793,90.111404 90.972321,89.381088 89.641815,88.814041 
	C87.012703,86.725105 84.662643,84.756424 82.449127,82.644638 
	C81.195663,81.448776 80.166267,80.018051 79.026169,78.334122 
z"/>
<path fill="#FDE0BE" opacity="1.000000" stroke="none" 
	d="
M87.000397,20.993717 
	C87.000137,21.161039 86.999878,21.328363 87.022919,21.745586 
	C85.443817,24.106056 83.841415,26.216625 81.810150,28.771488 
	C80.330101,29.831095 79.278923,30.446405 78.195839,30.712124 
	C80.862259,26.572727 83.560585,22.782921 86.453125,19.191444 
	C86.765022,19.924421 86.882706,20.459070 87.000397,20.993717 
z"/>
<path fill="#FEF6EB" opacity="1.000000" stroke="none" 
	d="
M78.227745,31.061714 
	C79.278923,30.446405 80.330101,29.831095 81.651833,29.063343 
	C82.286911,30.290655 82.651436,31.670410 82.693764,33.522953 
	C80.613678,35.365173 78.855782,36.734608 76.908737,37.837090 
	C76.117767,37.361683 75.515945,37.153236 75.056526,36.656952 
	C75.368462,35.769257 75.538002,35.169403 75.884354,34.322109 
	C76.783348,33.070351 77.505547,32.066032 78.227745,31.061714 
z"/>
<path fill="#F9DDBE" opacity="1.000000" stroke="none" 
	d="
M97.963097,26.579449 
	C93.940704,28.972878 89.865692,31.010254 85.445717,33.101181 
	C87.219604,27.540758 93.234985,24.285839 97.963097,26.579449 
z"/>
<path fill="#F9DDBE" opacity="1.000000" stroke="none" 
	d="
M77.097885,38.104042 
	C78.855782,36.734608 80.613678,35.365173 82.709282,33.879929 
	C83.046989,33.764118 83.515991,33.863544 83.748901,33.919983 
	C82.429855,36.269463 80.877892,38.562496 79.404205,41.185783 
	C79.482483,41.516037 79.241524,41.763870 78.869186,41.764328 
	C78.015770,41.494568 77.534683,41.224354 77.037903,40.963966 
	C77.022217,40.973801 77.061104,40.944397 77.063431,40.588783 
	C77.076469,39.523460 77.087181,38.813751 77.097885,38.104042 
z"/>
<path fill="#FBE3C5" opacity="1.000000" stroke="none" 
	d="
M88.891518,37.668823 
	C90.681557,35.938244 92.860313,34.317730 95.383377,32.637825 
	C95.412651,36.585831 92.261589,37.077164 88.891518,37.668823 
z"/>
<path fill="#FDE9D0" opacity="1.000000" stroke="none" 
	d="
M107.019012,60.661301 
	C107.296577,59.460808 107.639854,58.539181 108.092331,57.260658 
	C108.668205,57.834549 109.134865,58.765327 109.601532,59.696110 
	C108.762596,60.110794 107.923653,60.525475 107.019012,60.661301 
z"/>
<path fill="#FBE3C5" opacity="1.000000" stroke="none" 
	d="
M99.221939,46.936794 
	C100.031075,46.285191 101.219460,45.684853 102.745377,45.141685 
	C101.922340,45.795258 100.761765,46.391659 99.221939,46.936794 
z"/>
<path fill="#F4BE8D" opacity="1.000000" stroke="none" 
	d="
M101.198257,55.821526 
	C100.816360,55.525497 100.851105,55.357376 100.937416,54.935074 
	C101.881279,54.871330 102.773582,55.061768 103.924042,55.475140 
	C103.326431,55.781860 102.470657,55.865643 101.198257,55.821526 
z"/>
<path fill="#F4BE8D" opacity="1.000000" stroke="none" 
	d="
M107.865372,56.761673 
	C107.396004,56.841389 106.869240,56.612293 106.243073,56.101395 
	C106.698433,56.030685 107.253212,56.241776 107.865372,56.761673 
z"/>
<path fill="#FCEBD3" opacity="1.000000" stroke="none" 
	d="
M26.989819,102.975426 
	C26.547695,102.980522 26.105572,102.985619 24.979683,102.953537 
	C23.207346,101.278954 22.118776,99.641556 21.030205,98.004158 
	C22.354589,96.173599 23.720165,94.370995 24.988586,92.502441 
	C25.805788,91.298599 26.773298,90.072975 27.120970,88.715599 
	C27.373577,87.729355 26.721947,86.511513 26.473488,85.396935 
	C25.531157,85.924736 23.873375,86.331482 23.760323,86.999611 
	C22.899940,92.084351 18.638317,91.487869 15.395255,91.766106 
	C13.789885,91.903847 10.835548,90.229568 10.594728,88.972275 
	C10.265875,87.255371 11.511828,84.743256 12.868119,83.321136 
	C14.593919,81.511581 17.105379,80.451332 19.939978,78.880318 
	C23.408188,76.475838 26.214546,74.259071 29.423134,72.038803 
	C32.488613,72.410095 36.499004,70.689461 35.769409,76.264465 
	C34.644367,76.660683 33.739956,76.790962 32.631294,76.632355 
	C30.743139,76.215179 28.639027,75.379936 27.451084,76.086044 
	C23.233482,78.592972 19.210672,81.479103 15.381888,84.554955 
	C14.335081,85.395897 14.226050,87.404175 13.686663,88.876747 
	C15.248685,88.578552 17.100956,88.716995 18.321745,87.905472 
	C23.223192,84.647263 27.929075,81.094849 32.812653,77.981064 
	C32.953739,78.539047 32.989422,78.767143 33.041084,79.292206 
	C33.707634,79.734230 34.358204,79.879288 35.407722,80.014313 
	C36.870800,80.000877 37.934933,79.997475 39.269485,80.126007 
	C40.343506,80.845993 41.147106,81.434036 41.963486,82.414780 
	C42.345642,84.062691 42.715019,85.317894 43.165062,86.810883 
	C43.009399,87.643433 42.773075,88.238205 42.133709,88.881149 
	C39.423038,90.539200 37.095310,92.121277 34.815331,93.769402 
	C33.457100,94.751221 32.173862,95.836792 30.898411,96.528679 
	C33.789570,91.815079 36.639229,87.448517 39.488892,83.081963 
	C38.973984,82.566307 38.459076,82.050652 37.944164,81.535004 
	C36.370842,82.523666 34.440102,83.210976 33.299164,84.564194 
	C30.977894,87.317345 28.845829,90.298042 27.097235,93.441643 
	C25.966726,95.474052 25.654644,97.961708 24.975811,100.245354 
	C26.785265,99.186562 28.593885,98.126335 30.405794,97.071762 
	C30.547512,96.989273 30.712179,96.946228 30.907879,97.259567 
	C29.629658,99.414665 28.309738,101.195045 26.989819,102.975426 
z"/>
<path fill="#FCFCF7" opacity="1.000000" stroke="none" 
	d="
M30.856911,96.875717 
	C32.173862,95.836792 33.457100,94.751221 34.815331,93.769402 
	C37.095310,92.121277 39.423038,90.539200 42.060028,89.247925 
	C42.264439,90.043907 42.139492,90.521278 41.666378,91.049698 
	C40.242538,93.293785 36.903305,94.962090 39.635452,98.354660 
	C39.475243,98.840363 39.385834,99.025673 38.953529,99.181824 
	C38.224026,99.378738 37.837425,99.604813 37.450825,99.830887 
	C37.834694,100.235878 38.218567,100.640869 38.511650,101.470383 
	C38.381134,103.887886 38.341415,105.880867 38.301693,107.873848 
	C37.246429,108.339760 36.191170,108.805672 35.066765,109.636253 
	C30.517792,110.149750 29.174234,106.601364 27.196056,103.266693 
	C28.309738,101.195045 29.629658,99.414665 30.948023,97.306747 
	C30.946468,96.979210 30.856911,96.875717 30.856911,96.875717 
z"/>
<path fill="#DC853D" opacity="1.000000" stroke="none" 
	d="
M8.249790,76.248955 
	C7.467920,75.983490 6.970205,75.620193 6.343308,74.724411 
	C6.165362,73.479515 6.116598,72.767113 6.067834,72.054703 
	C6.067834,72.054703 5.998927,72.003616 6.416773,72.043091 
	C13.376260,69.944336 19.917902,67.806107 26.459543,65.667870 
	C26.723129,66.189606 26.986713,66.711342 27.250299,67.233078 
	C26.232710,68.526360 25.215120,69.819633 23.816196,71.174034 
	C20.909834,72.079979 18.384808,72.924805 15.494362,73.762726 
	C14.096430,74.260101 13.063916,74.764389 12.031403,75.268669 
	C10.865582,75.562820 9.699764,75.856972 8.249790,76.248955 
z"/>
<path fill="#FBFBF5" opacity="1.000000" stroke="none" 
	d="
M15.859783,73.769630 
	C18.384808,72.924805 20.909834,72.079979 24.200617,71.186264 
	C25.998463,71.095894 27.030550,71.054420 28.276297,71.127655 
	C28.750435,71.453568 28.927418,71.720215 29.020905,72.042305 
	C26.214546,74.259071 23.408188,76.475838 20.294859,78.825836 
	C18.892391,78.301971 17.796894,77.644867 16.338753,76.650223 
	C15.984657,75.875366 15.993204,75.438042 15.992264,74.689957 
	C15.941777,74.175995 15.900780,73.972809 15.859783,73.769630 
z"/>
<path fill="#FCFCF7" opacity="1.000000" stroke="none" 
	d="
M20.663731,98.069275 
	C22.118776,99.641556 23.207346,101.278954 24.648146,102.960754 
	C23.589611,103.534882 22.178850,104.064613 20.768087,104.594337 
	C20.611143,102.441025 20.454199,100.287712 20.663731,98.069275 
z"/>
<path fill="#FCE0C2" opacity="1.000000" stroke="none" 
	d="
M15.494363,73.762726 
	C15.900780,73.972809 15.941777,74.175995 15.693727,74.710327 
	C14.935689,75.362312 14.466699,75.683151 13.997709,76.003990 
	C13.454781,75.906517 12.911852,75.809036 12.200163,75.490112 
	C13.063916,74.764389 14.096430,74.260101 15.494363,73.762726 
z"/>
<path fill="#FCEBD3" opacity="1.000000" stroke="none" 
	d="
M14.161980,76.241661 
	C14.466699,75.683151 14.935689,75.362312 15.703215,75.021103 
	C15.993204,75.438042 15.984657,75.875366 15.960829,76.639740 
	C15.405783,76.804306 14.866017,76.641815 14.161980,76.241661 
z"/>
<path fill="#F9DEC6" opacity="1.000000" stroke="none" 
	d="
M87.259216,20.778265 
	C86.882706,20.459070 86.765022,19.924421 86.383240,18.819710 
	C84.926384,13.529022 83.187981,17.166330 82.067184,18.155819 
	C80.511330,19.529400 79.328316,21.325298 77.990990,22.618740 
	C77.998611,21.868265 78.000931,21.439449 78.003258,21.010635 
	C78.877151,19.621389 79.789459,18.254620 80.617889,16.838770 
	C83.324234,12.213425 84.109863,12.091494 88.661697,15.891294 
	C88.480576,17.558256 87.999306,19.060534 87.259216,20.778265 
z"/>
<path fill="#FADCBE" opacity="1.000000" stroke="none" 
	d="
M23.057373,15.431130 
	C26.836742,12.149030 29.050140,13.825008 31.203808,17.328737 
	C33.661743,21.327477 36.635101,25.009398 39.684219,29.327213 
	C40.310120,30.548233 40.636272,31.271040 40.981194,32.365608 
	C40.971886,33.480179 40.943813,34.222984 40.661621,35.143696 
	C39.603840,35.871021 38.800179,36.420444 37.695686,36.835590 
	C36.605095,35.782955 35.815323,34.864594 35.404041,33.967613 
	C36.738514,33.896278 37.694496,33.803570 38.692596,33.706779 
	C36.549057,26.361408 27.527763,16.107759 24.427322,17.346283 
	C27.317421,22.214489 30.207321,27.082811 32.751041,31.924849 
	C31.093763,30.504398 29.837212,29.053221 28.456263,27.732069 
	C27.068777,26.404663 25.557411,25.206745 24.083580,23.605576 
	C23.725204,22.175074 23.383585,21.091078 23.041965,20.007080 
	C23.037800,18.620123 23.033634,17.233166 23.057373,15.431130 
z"/>
<path fill="#F6FCFA" opacity="1.000000" stroke="none" 
	d="
M22.621624,20.004702 
	C23.383585,21.091078 23.725204,22.175074 23.759800,23.761654 
	C21.953592,24.852091 20.454412,25.439947 18.578720,25.983685 
	C16.468468,25.640751 14.734728,25.341932 13.027328,24.713938 
	C13.702244,23.256229 14.350816,22.127697 14.999388,20.999163 
	C17.400019,20.666883 19.800652,20.334602 22.621624,20.004702 
z"/>
<path fill="#FDFDF6" opacity="1.000000" stroke="none" 
	d="
M14.739151,20.717583 
	C14.350816,22.127697 13.702244,23.256229 12.722222,24.752148 
	C11.635839,25.758730 10.880904,26.397926 10.125969,27.037123 
	C8.640808,25.390032 7.155647,23.742941 5.335037,22.047733 
	C6.231315,21.122282 7.398744,19.651749 8.710158,19.509604 
	C10.577664,19.307180 12.550864,20.079870 14.739151,20.717583 
z"/>
<path fill="#E18F4A" opacity="1.000000" stroke="none" 
	d="
M52.829029,23.922560 
	C52.856373,22.583771 52.883717,21.244980 52.992641,19.073460 
	C53.341862,15.121718 53.548233,11.995460 53.915924,8.888291 
	C54.020950,8.000762 54.593746,7.168585 54.952049,6.311027 
	C55.997185,6.879174 57.042328,7.447321 58.087471,8.015470 
	C58.080975,15.338109 58.074478,22.660748 58.012169,30.908581 
	C57.928970,34.478851 57.986389,37.128181 57.854065,39.767998 
	C57.662075,43.598114 59.168118,45.019352 63.186707,43.607052 
	C63.857681,43.610023 64.240952,43.613754 64.827423,43.881676 
	C66.381592,44.387852 67.732567,44.629833 69.074661,44.903023 
	C69.065788,44.934231 69.129868,44.924034 69.090225,45.314152 
	C68.960777,46.739399 68.870972,47.774525 68.599442,48.871868 
	C68.417732,48.934082 68.058746,49.070774 67.697769,49.002998 
	C66.856178,49.009861 66.375565,49.084499 65.464264,49.120140 
	C62.728165,49.118328 60.422752,49.155514 57.732559,49.075722 
	C52.214882,48.908421 55.011337,43.993507 53.117706,41.603951 
	C53.073208,40.463379 52.980679,39.704254 52.939110,38.572433 
	C52.911434,36.498730 52.832790,34.797718 52.991768,32.996632 
	C53.198208,31.925512 53.167030,30.954464 53.158436,29.550388 
	C53.063690,27.385759 52.946362,25.654160 52.829029,23.922560 
z"/>
<path fill="#F9FCF9" opacity="1.000000" stroke="none" 
	d="
M64.624222,43.617489 
	C64.240952,43.613754 63.857681,43.610023 63.213234,43.244522 
	C62.944195,42.642143 62.936329,42.401527 62.924713,41.801476 
	C61.930286,40.628017 60.939602,39.813995 59.927929,38.666908 
	C59.913631,37.889072 59.920322,37.444294 60.236183,36.964375 
	C60.875507,36.514687 61.205662,36.100143 61.535820,35.685600 
	C60.994995,35.457645 60.454178,35.229691 59.897995,34.667229 
	C59.888752,33.886257 59.894875,33.439796 59.900997,32.993340 
	C60.804039,32.820499 61.707077,32.647663 63.197990,32.228779 
	C64.858856,31.335012 65.931854,30.687292 67.186676,29.794922 
	C67.803772,28.635201 68.239029,27.720131 69.050232,26.894947 
	C69.761871,28.046719 70.226608,29.087479 70.404663,30.175167 
	C70.714745,32.069363 70.848053,33.992493 70.994629,36.246758 
	C69.285599,38.683048 67.637398,40.776081 65.626724,43.017483 
	C65.050896,43.316399 64.837555,43.466942 64.624222,43.617489 
z"/>
<path fill="#FDE0BE" opacity="1.000000" stroke="none" 
	d="
M71.055458,35.903496 
	C70.848053,33.992493 70.714745,32.069363 70.404663,30.175167 
	C70.226608,29.087479 69.761871,28.046719 69.046997,26.534885 
	C69.109238,24.722744 69.550667,23.360550 70.322250,21.999897 
	C71.092171,21.997065 71.531944,21.992693 71.971710,21.988321 
	C74.320656,25.727955 75.527786,20.997099 77.705368,21.133108 
	C78.000931,21.439449 77.998611,21.868265 77.859268,22.939915 
	C76.191856,25.921000 74.598000,28.220661 73.147202,30.607283 
	C71.344040,33.573570 72.163574,34.987244 75.707550,34.569550 
	C75.538002,35.169403 75.368462,35.769257 74.718132,36.660042 
	C73.176712,36.601814 72.116089,36.252655 71.055458,35.903496 
z"/>
<path fill="#D98641" opacity="1.000000" stroke="none" 
	d="
M69.992096,21.998356 
	C69.550667,23.360550 69.109238,24.722744 68.671043,26.444998 
	C68.239029,27.720131 67.803772,28.635201 66.812935,29.757196 
	C65.267006,29.877962 64.276649,29.791801 63.286293,29.705639 
	C63.222553,29.033955 63.158813,28.362268 63.367512,27.121334 
	C64.828300,23.052486 66.016655,19.552889 67.512863,15.973824 
	C68.431137,15.248438 69.041565,14.602519 70.075928,13.508018 
	C70.075928,15.710307 70.075928,17.420053 70.062454,19.487789 
	C70.030022,20.563305 70.011063,21.280830 69.992096,21.998356 
z"/>
<path fill="#EA9553" opacity="1.000000" stroke="none" 
	d="
M70.075928,19.129801 
	C70.075928,17.420053 70.075928,15.710307 70.075928,13.508018 
	C69.041565,14.602519 68.431137,15.248438 67.467636,15.624527 
	C67.059509,14.890734 67.004456,14.426768 66.949402,13.962803 
	C68.283676,11.802384 69.617958,9.641967 71.411415,7.744600 
	C72.460487,8.442393 73.050377,8.877136 73.640274,9.311878 
	C72.799828,12.299724 71.959389,15.287570 70.842758,18.656258 
	C70.566574,19.037102 70.075928,19.129801 70.075928,19.129801 
z"/>
<path fill="#FAD4AE" opacity="1.000000" stroke="none" 
	d="
M58.337181,7.797043 
	C57.042328,7.447321 55.997185,6.879174 54.952049,6.311027 
	C54.593746,7.168585 54.020950,8.000762 53.915924,8.888291 
	C53.548233,11.995460 53.341862,15.121718 52.959232,18.672504 
	C52.237434,17.802509 50.950329,16.385101 51.148350,15.220132 
	C51.804989,11.357080 52.996452,7.584938 54.037781,3.488018 
	C57.051533,3.159695 59.082283,4.073330 58.337181,7.797043 
z"/>
<path fill="#FAD4AE" opacity="1.000000" stroke="none" 
	d="
M59.863449,32.691246 
	C59.894875,33.439796 59.888752,33.886257 59.890594,35.000221 
	C59.908043,36.111656 59.917530,36.555588 59.927013,36.999519 
	C59.920322,37.444294 59.913631,37.889072 59.949959,39.014957 
	C60.971470,40.517685 61.949963,41.339298 62.928459,42.160912 
	C62.936329,42.401527 62.944195,42.642143 62.925533,43.245285 
	C59.168118,45.019352 57.662075,43.598114 57.854065,39.767998 
	C57.986389,37.128181 57.928970,34.478851 58.056198,31.369228 
	C58.712658,31.399506 59.269279,31.894329 59.863449,32.691246 
z"/>
<path fill="#F9D5B1" opacity="1.000000" stroke="none" 
	d="
M66.592255,14.043415 
	C67.004456,14.426768 67.059509,14.890734 67.159790,15.703995 
	C66.016655,19.552889 64.828300,23.052486 63.367954,26.782982 
	C64.142342,22.717260 65.188728,18.420643 66.592255,14.043415 
z"/>
<path fill="#F9D5B1" opacity="1.000000" stroke="none" 
	d="
M63.194218,30.067616 
	C64.276649,29.791801 65.267006,29.877962 66.631104,30.001846 
	C65.931854,30.687292 64.858856,31.335012 63.408520,31.949026 
	C63.054836,31.420076 63.078491,30.924835 63.194218,30.067616 
z"/>
<path fill="#F9D5B1" opacity="1.000000" stroke="none" 
	d="
M70.062454,19.487789 
	C70.075928,19.129801 70.566574,19.037102 70.816124,19.025183 
	C71.373878,19.784126 71.682076,20.554989 71.980995,21.657087 
	C71.531944,21.992693 71.092171,21.997065 70.322250,21.999897 
	C70.011063,21.280830 70.030022,20.563305 70.062454,19.487789 
z"/>
<path fill="#F9D5B1" opacity="1.000000" stroke="none" 
	d="
M73.714874,8.938801 
	C73.050377,8.877136 72.460487,8.442393 71.741028,7.766027 
	C72.337471,7.871510 73.063477,8.218616 73.714874,8.938801 
z"/>
<path fill="#FBFBF8" opacity="1.000000" stroke="none" 
	d="
M52.754150,33.096703 
	C52.832790,34.797718 52.911434,36.498730 52.642727,38.592693 
	C51.828938,39.322533 51.362492,39.659424 50.557961,40.034660 
	C49.042198,40.097195 47.582878,40.579571 46.738934,40.060822 
	C44.060791,38.414623 43.361015,39.757549 42.691353,42.239292 
	C40.924973,46.145851 39.465614,49.876900 37.888016,53.910248 
	C34.788933,54.190758 31.393894,54.498051 27.998857,54.805347 
	C27.974642,53.701500 27.950424,52.597649 27.854851,50.895683 
	C27.783491,50.297569 27.899244,49.936375 28.093672,49.904770 
	C28.378233,49.780800 28.561956,49.649784 28.542501,49.602665 
	C28.452202,49.383991 28.305573,49.188580 28.157425,48.641846 
	C28.036743,47.619427 27.937746,46.939991 28.039700,45.968014 
	C29.158884,44.788673 30.077116,43.901878 31.234501,42.992554 
	C31.473654,42.970028 31.953537,42.947239 32.221703,43.171062 
	C32.911545,44.513748 33.333218,45.632614 33.852016,47.009197 
	C37.938480,44.498741 37.002460,42.659241 33.854137,40.571220 
	C33.881557,39.455585 33.887699,38.711498 34.241329,38.003815 
	C35.724716,37.683434 36.860615,37.326649 37.996513,36.969868 
	C38.800179,36.420444 39.603840,35.871021 40.993614,35.130821 
	C43.397881,34.269348 45.216030,33.598660 47.255722,32.929131 
	C47.477257,32.930298 47.919399,32.959126 48.328346,32.973511 
	C49.556564,32.963924 50.375835,32.939953 51.584316,32.965919 
	C52.233734,33.042805 52.493942,33.069752 52.754150,33.096703 
z"/>
<path fill="#E08E4F" opacity="1.000000" stroke="none" 
	d="
M27.838749,46.260559 
	C27.937746,46.939991 28.036743,47.619427 28.025158,48.861488 
	C27.909462,49.594872 27.904352,49.765625 27.899244,49.936375 
	C27.899244,49.936375 27.783491,50.297569 27.809427,50.484062 
	C27.136629,50.745502 26.437893,50.820446 25.164177,50.611870 
	C19.438431,48.582661 14.322798,46.721821 9.123426,45.135429 
	C6.112381,44.216728 5.434077,42.697632 7.009111,40.053574 
	C7.451921,40.032478 7.894731,40.011387 8.904050,40.259064 
	C12.893373,41.475464 16.316189,42.423088 19.988506,43.534794 
	C20.821136,43.790596 21.404263,43.882320 22.190926,44.239407 
	C23.256371,44.673767 24.118280,44.842762 24.988047,45.006382 
	C24.995905,45.001007 24.994007,45.018173 25.086346,45.235981 
	C25.178686,45.453789 25.572168,45.714615 25.572168,45.714615 
	C25.572168,45.714615 26.042675,45.675755 26.330198,45.809402 
	C27.024731,46.048889 27.431740,46.154724 27.838749,46.260559 
z"/>
<path fill="#FCDBB6" opacity="1.000000" stroke="none" 
	d="
M27.814705,54.889507 
	C31.393894,54.498051 34.788933,54.190758 37.888016,53.910248 
	C39.465614,49.876900 40.924973,46.145851 43.056976,42.246933 
	C47.738201,43.575062 50.040932,49.107533 48.752384,55.053528 
	C48.296780,57.155930 46.954807,59.066250 45.993645,60.728226 
	C45.949448,60.168526 45.929119,59.944862 45.927063,59.280739 
	C45.963493,55.559994 45.981655,52.279709 46.057045,48.615959 
	C45.452507,46.970940 44.790745,45.709377 44.128983,44.447815 
	C43.530437,45.998070 42.931892,47.548321 42.252556,49.517319 
	C42.117271,51.646286 42.062771,53.356503 41.781231,55.146084 
	C41.264973,55.400394 41.073673,55.650314 40.600052,55.978798 
	C39.472176,56.094101 38.724548,56.205822 37.528687,56.224220 
	C33.697060,56.127243 30.313665,56.123585 26.961411,55.954086 
	C26.992550,55.788242 26.990541,55.450768 26.990541,55.450768 
	C27.152229,55.222473 27.365566,55.063438 27.814705,54.889507 
z"/>
<path fill="#F9DDBC" opacity="1.000000" stroke="none" 
	d="
M31.953537,42.947239 
	C31.953537,42.947239 31.473654,42.970028 30.871700,42.941460 
	C27.196363,41.268414 24.122980,39.623936 21.049597,37.979458 
	C21.007614,37.584919 20.965630,37.190384 21.253290,36.461845 
	C22.033661,36.139801 22.484386,36.151752 23.124378,36.442230 
	C25.559629,38.299831 27.805618,39.878902 30.051607,41.457973 
	C30.674490,35.528572 25.711771,34.763496 22.934147,31.769077 
	C22.800085,31.108677 22.716692,30.732969 23.007309,30.269943 
	C26.885494,32.777554 30.389668,35.372478 33.893841,37.967407 
	C33.887699,38.711498 33.881557,39.455585 33.612892,40.709396 
	C32.884758,41.795155 32.419147,42.371197 31.953537,42.947239 
z"/>
<path fill="#E18C49" opacity="1.000000" stroke="none" 
	d="
M22.633299,30.357262 
	C22.716692,30.732969 22.800085,31.108677 22.939045,32.178650 
	C22.974779,33.969845 22.954947,35.066772 22.935114,36.163704 
	C22.484386,36.151752 22.033661,36.139801 21.245800,36.164303 
	C19.937521,35.428028 18.966375,34.655304 17.556726,33.453922 
	C15.862096,31.296766 14.605968,29.568266 13.349839,27.839764 
	C15.458349,27.982172 17.566858,28.124580 19.698347,28.275789 
	C19.721325,28.284590 19.765507,28.306154 19.850163,28.600813 
	C20.608311,29.295376 21.281807,29.695278 22.115217,30.185495 
	C22.275131,30.275810 22.633299,30.357262 22.633299,30.357262 
z"/>
<path fill="#FBDDBD" opacity="1.000000" stroke="none" 
	d="
M6.810781,39.781441 
	C5.434077,42.697632 6.112381,44.216728 9.123426,45.135429 
	C14.322798,46.721821 19.438431,48.582661 24.810827,50.609550 
	C18.340048,49.003914 11.499655,47.497543 5.049226,44.988586 
	C3.215150,44.275204 2.795942,40.698082 6.156707,39.349339 
	C6.269118,39.304230 6.458791,39.451637 6.810781,39.781441 
z"/>
<path fill="#FCF8EA" opacity="1.000000" stroke="none" 
	d="
M20.766079,38.211365 
	C24.122980,39.623936 27.196363,41.268414 30.632545,42.963989 
	C30.077116,43.901878 29.158884,44.788673 28.039700,45.968010 
	C27.431740,46.154724 27.024731,46.048889 26.205074,45.633450 
	C25.568686,45.111362 25.302547,45.009472 24.994007,45.018173 
	C24.994007,45.018173 24.995905,45.001007 24.958591,44.680283 
	C23.943317,44.231052 22.965353,44.102547 21.987391,43.974041 
	C21.404263,43.882320 20.821136,43.790596 20.069664,43.206482 
	C19.926998,42.491489 19.952679,42.268894 19.978357,42.046295 
	C20.146425,40.845287 20.314495,39.644276 20.766079,38.211365 
z"/>
<path fill="#F9DDBC" opacity="1.000000" stroke="none" 
	d="
M19.675369,28.266987 
	C17.566858,28.124580 15.458349,27.982172 13.349839,27.839764 
	C14.605968,29.568266 15.862096,31.296766 17.264339,33.333191 
	C13.430818,33.597610 10.969810,31.662359 10.106246,27.399431 
	C10.880904,26.397926 11.635839,25.758730 12.695880,25.081324 
	C14.734728,25.341932 16.468468,25.640751 18.702965,26.257587 
	C19.360937,27.139400 19.518152,27.703194 19.675369,28.266987 
z"/>
<path fill="#FCDBB6" opacity="1.000000" stroke="none" 
	d="
M5.995165,55.308777 
	C11.244495,55.137241 16.493826,54.965702 21.511606,55.265175 
	C20.184128,55.849236 19.088198,55.962280 17.536144,56.050472 
	C13.756224,56.103775 10.432426,56.181931 6.903879,56.120415 
	C6.386815,55.838093 6.152160,55.614105 5.995165,55.308777 
z"/>
<path fill="#FBDDBD" opacity="1.000000" stroke="none" 
	d="
M19.611607,41.996048 
	C19.952679,42.268894 19.926998,42.491489 19.820162,43.042400 
	C16.316189,42.423088 12.893373,41.475464 9.236155,40.243141 
	C12.416120,40.620899 15.830488,41.283352 19.611607,41.996048 
z"/>
<path fill="#E09558" opacity="1.000000" stroke="none" 
	d="
M5.718068,55.310963 
	C6.152160,55.614105 6.386815,55.838093 6.873005,56.461235 
	C7.072412,57.854717 7.097945,58.767704 7.123478,59.680691 
	C4.069041,60.188080 2.429841,59.501350 4.205667,55.762093 
	C4.712534,55.418156 5.076753,55.365650 5.718068,55.310963 
z"/>
<path fill="#E09558" opacity="1.000000" stroke="none" 
	d="
M17.992270,56.075325 
	C19.088198,55.962280 20.184128,55.849236 21.673256,55.611176 
	C23.436314,55.513615 24.806171,55.541069 26.583286,55.509644 
	C26.990541,55.450768 26.992550,55.788242 26.683247,56.219013 
	C23.580051,56.458298 20.786161,56.266811 17.992270,56.075325 
z"/>
<path fill="#FBE3C5" opacity="1.000000" stroke="none" 
	d="
M47.919399,32.959126 
	C47.919399,32.959126 47.477257,32.930298 46.978462,32.660694 
	C44.640583,32.258675 42.801506,32.126263 40.962425,31.993847 
	C40.636272,31.271040 40.310120,30.548233 39.974350,29.515825 
	C40.238144,27.956158 41.023346,26.548063 40.694752,25.483879 
	C39.398319,21.285213 37.601852,17.239731 36.337036,13.033335 
	C36.002735,11.921557 36.907574,10.437184 37.645447,9.459034 
	C39.853050,15.784431 41.569527,21.804535 43.555573,27.734354 
	C43.871227,28.676821 45.399498,29.213154 46.367142,29.937254 
	C46.875652,29.209433 47.979740,28.257853 47.803017,27.787474 
	C45.297150,21.117666 42.617622,14.513105 39.980095,7.892763 
	C42.284000,4.451495 43.197304,7.813037 43.723118,8.975712 
	C45.079521,11.974969 45.692707,15.313850 47.082203,18.293495 
	C48.139400,20.560547 48.020241,24.210382 52.451439,23.936617 
	C52.946362,25.654160 53.063690,27.385759 52.874168,29.566982 
	C52.065601,30.246311 51.563889,30.476017 50.739517,30.810478 
	C49.584373,31.596533 48.751888,32.277828 47.919399,32.959126 
z"/>
<path fill="#DC8F50" opacity="1.000000" stroke="none" 
	d="
M39.704536,7.984941 
	C42.617622,14.513105 45.297150,21.117666 47.803017,27.787474 
	C47.979740,28.257853 46.875652,29.209433 46.367142,29.937254 
	C45.399498,29.213154 43.871227,28.676821 43.555573,27.734354 
	C41.569527,21.804535 39.853050,15.784431 38.012566,9.396721 
	C38.461437,8.691888 38.945210,8.384503 39.704536,7.984941 
z"/>
<path fill="#DD8A49" opacity="1.000000" stroke="none" 
	d="
M68.960350,91.044983 
	C69.980972,93.635849 71.001587,96.226707 72.330170,98.970154 
	C72.808060,101.498611 72.977982,103.874496 72.689110,106.662598 
	C71.176666,107.025894 70.123024,106.976967 69.069382,106.928040 
	C69.069382,106.928040 69.001244,107.000626 69.046509,106.630821 
	C68.572365,105.350266 68.052948,104.439522 67.533531,103.528770 
	C67.395546,102.904480 67.257561,102.280190 67.036217,100.978714 
	C65.945496,97.869385 64.938126,95.437233 63.885563,92.689575 
	C63.767910,91.955795 63.695454,91.537537 63.706512,90.733994 
	C64.171791,88.965736 64.553558,87.582756 65.131958,85.487473 
	C66.820305,87.938377 67.890327,89.491684 68.960350,91.044983 
z"/>
<path fill="#E8A872" opacity="1.000000" stroke="none" 
	d="
M57.301083,110.149490 
	C55.937160,109.997032 54.774216,109.647011 53.277229,108.814224 
	C52.896599,107.885063 52.850010,107.438675 53.062073,106.978378 
	C53.493317,106.969902 53.665909,106.975319 54.142021,107.090332 
	C55.086155,106.716690 56.277664,106.237335 56.281097,105.749619 
	C56.311165,101.473000 55.981201,97.190887 56.096622,92.919548 
	C56.133266,91.563377 57.189041,90.234749 57.915062,89.220184 
	C58.121059,90.013710 58.190449,90.480553 58.201187,91.222984 
	C58.180359,91.682541 58.218185,91.866524 58.232262,92.386902 
	C58.297787,93.160225 58.387066,93.597168 58.476341,94.034111 
	C58.387096,98.363907 58.297848,102.693703 58.156540,107.750015 
	C58.117569,108.662643 58.130661,108.848755 58.143753,109.034874 
	C57.929855,109.340561 57.715958,109.646240 57.301083,110.149490 
z"/>
<path fill="#FDF9EC" opacity="1.000000" stroke="none" 
	d="
M58.851860,94.024780 
	C58.387066,93.597168 58.297787,93.160225 58.362179,92.272804 
	C58.558899,91.715126 58.666077,91.578156 58.632763,91.506416 
	C58.539528,91.305649 58.388226,91.131844 58.259838,90.947403 
	C58.190449,90.480553 58.121059,90.013710 57.958241,88.842651 
	C57.832165,87.125732 57.799511,86.113022 57.953796,84.827576 
	C58.250820,84.364105 58.360905,84.173393 58.835796,83.982147 
	C60.172825,84.012459 61.145046,84.043320 62.089516,84.481323 
	C62.582180,86.965401 63.102592,89.042336 63.623001,91.119270 
	C63.695454,91.537537 63.767910,91.955795 63.682560,92.796860 
	C63.289452,93.430321 63.131302,93.688286 63.050301,93.993553 
	C61.775993,94.000847 60.501686,94.008148 58.851860,94.024780 
z"/>
<path fill="#F7D8BA" opacity="1.000000" stroke="none" 
	d="
M63.096794,94.355682 
	C63.131302,93.688286 63.289452,93.430321 63.727757,93.112373 
	C64.938126,95.437233 65.945496,97.869385 66.935822,100.675034 
	C65.660278,98.938286 64.401787,96.828049 63.096794,94.355682 
z"/>
<path fill="#F7D8BA" opacity="1.000000" stroke="none" 
	d="
M69.088142,107.278839 
	C70.123024,106.976967 71.176666,107.025894 72.625076,107.109680 
	C72.023735,109.792397 70.671188,109.564995 69.088142,107.278839 
z"/>
<path fill="#F7D8BA" opacity="1.000000" stroke="none" 
	d="
M67.384872,103.902916 
	C68.052948,104.439522 68.572365,105.350266 69.082733,106.596214 
	C68.461197,106.046631 67.848701,105.161850 67.384872,103.902916 
z"/>
<path fill="#FDE1BF" opacity="1.000000" stroke="none" 
	d="
M58.302074,108.943626 
	C58.130661,108.848755 58.117569,108.662643 58.190311,108.209724 
	C58.398613,108.141556 58.545383,108.330612 58.629642,108.544312 
	C58.657093,108.613930 58.521446,108.747856 58.302074,108.943626 
z"/>
<path fill="#F9FCF9" opacity="1.000000" stroke="none" 
	d="
M29.423134,72.038803 
	C28.927418,71.720215 28.750435,71.453568 28.375629,70.861298 
	C28.801725,69.970139 29.342146,69.460037 29.882568,68.949936 
	C30.681694,68.894295 31.480820,68.838654 31.925884,68.807671 
	C31.925884,66.570717 31.925884,64.639648 31.963058,62.349747 
	C34.370415,61.986717 36.740597,61.982513 39.586922,62.337387 
	C40.375847,63.798508 40.688625,64.900551 40.955864,66.258926 
	C40.872799,66.684731 40.835270,66.854195 40.459763,67.099541 
	C38.438793,70.562309 38.687187,73.142021 42.987679,74.377060 
	C42.659477,75.816971 42.329617,76.908791 41.624786,78.000458 
	C40.499882,78.000000 39.749939,77.999695 38.946449,77.654526 
	C37.925282,76.872612 36.957661,76.435570 35.990040,75.998528 
	C36.499004,70.689461 32.488613,72.410095 29.423134,72.038803 
z"/>
<path fill="#FCE0C2" opacity="1.000000" stroke="none" 
	d="
M29.899076,68.572456 
	C29.342146,69.460037 28.801725,69.970139 28.161972,70.746597 
	C27.030550,71.054420 25.998463,71.095894 24.581953,71.125137 
	C25.215120,69.819633 26.232710,68.526360 27.250299,67.233078 
	C26.986713,66.711342 26.723129,66.189606 26.459543,65.667870 
	C19.917902,67.806107 13.376260,69.944336 6.446065,72.074661 
	C7.333280,70.773590 8.385246,68.860146 9.926906,68.303886 
	C14.495073,66.655632 19.226479,65.420540 23.952625,64.263046 
	C27.141312,63.482098 29.507154,64.491470 29.899076,68.572456 
z"/>
<path fill="#FCE0C2" opacity="1.000000" stroke="none" 
	d="
M5.722641,72.067505 
	C6.116598,72.767113 6.165362,73.479515 6.184226,74.546967 
	C3.726694,74.558525 3.456022,73.621193 5.722641,72.067505 
z"/>
<path fill="#DB7629" opacity="1.000000" stroke="none" 
	d="
M57.766857,85.100319 
	C57.799511,86.113022 57.832165,87.125732 57.821636,88.515976 
	C57.189041,90.234749 56.133266,91.563377 56.096622,92.919548 
	C55.981201,97.190887 56.311165,101.473000 56.281097,105.749619 
	C56.277664,106.237335 55.086155,106.716690 54.123955,106.694138 
	C53.575466,105.722725 53.348553,105.257111 53.121639,104.791489 
	C53.126427,101.802582 53.131214,98.813667 53.154427,94.981201 
	C53.046638,91.081215 52.920422,88.024803 52.926796,84.538971 
	C53.012730,81.423126 52.966076,78.736702 53.115715,75.747314 
	C54.133335,72.792343 53.299259,71.299492 50.383923,71.277229 
	C48.586319,71.263512 46.788616,71.263031 44.872040,70.984970 
	C45.224655,69.566193 45.696190,68.419052 46.574112,67.237991 
	C48.613014,67.201683 50.245529,67.199295 51.991936,67.552513 
	C55.862236,68.797142 56.084255,71.454224 56.128693,74.765121 
	C56.175018,78.216896 57.180645,81.655792 57.766857,85.100319 
z"/>
<path fill="#DF8F50" opacity="1.000000" stroke="none" 
	d="
M42.014545,90.998657 
	C42.139492,90.521278 42.264439,90.043907 42.463066,89.199753 
	C42.773075,88.238205 43.009399,87.643433 43.412933,86.695732 
	C43.720741,86.227150 43.861351,86.111488 44.398132,85.991745 
	C45.846695,86.011917 46.899086,86.036171 47.972992,86.028786 
	C47.994503,85.997147 47.939697,86.051758 47.931877,86.430458 
	C48.018219,87.560890 48.112385,88.312614 48.098579,89.370972 
	C47.908737,90.102837 47.826866,90.528076 47.497150,91.203156 
	C46.498661,94.307129 45.748020,97.161270 44.997375,100.015419 
	C44.252697,102.095009 43.508022,104.174606 42.715324,106.627335 
	C41.432674,107.276985 40.198040,107.553513 38.632553,107.851944 
	C38.341415,105.880867 38.381134,103.887886 38.690834,101.292038 
	C39.072689,100.196442 39.184559,99.703712 39.296429,99.210991 
	C39.385834,99.025673 39.475243,98.840363 39.871140,98.146576 
	C40.789936,95.424950 41.402241,93.211807 42.014545,90.998657 
z"/>
<path fill="#FDFAEA" opacity="1.000000" stroke="none" 
	d="
M47.744995,90.953323 
	C47.826866,90.528076 47.908737,90.102837 48.414963,89.295586 
	C49.218540,87.971390 49.597759,87.029205 50.157791,85.819351 
	C51.157135,85.357254 51.975670,85.162819 52.794205,84.968384 
	C52.920422,88.024803 53.046638,91.081215 53.029396,94.577667 
	C51.527817,95.012444 50.169697,95.007195 48.429024,94.668327 
	C47.945980,93.207581 47.845486,92.080452 47.744995,90.953323 
z"/>
<path fill="#FADFC2" opacity="1.000000" stroke="none" 
	d="
M47.497147,91.203156 
	C47.845486,92.080452 47.945980,93.207581 48.020271,94.667877 
	C47.225437,96.640038 46.456802,98.279015 45.342773,99.966705 
	C45.748020,97.161270 46.498661,94.307129 47.497147,91.203156 
z"/>
<path fill="#FDFAEA" opacity="1.000000" stroke="none" 
	d="
M52.803425,106.992279 
	C52.850010,107.438675 52.896599,107.885063 52.941277,108.668396 
	C52.766136,108.996590 52.592903,108.987846 52.158443,108.983551 
	C51.366566,108.020515 50.835915,107.053040 50.773781,106.270050 
	C51.762669,106.633781 52.283047,106.813034 52.803425,106.992279 
z"/>
<path fill="#FDE1BF" opacity="1.000000" stroke="none" 
	d="
M53.062073,106.978386 
	C52.283047,106.813034 51.762669,106.633781 51.079540,106.217850 
	C51.482613,105.608879 52.048435,105.236580 52.867950,104.827888 
	C53.348553,105.257111 53.575466,105.722725 53.820442,106.584541 
	C53.665909,106.975319 53.493317,106.969902 53.062073,106.978386 
z"/>
<path fill="#DD7A26" opacity="1.000000" stroke="none" 
	d="
M17.536144,56.050472 
	C20.786161,56.266811 23.580051,56.458298 26.652107,56.384857 
	C30.313665,56.123585 33.697060,56.127243 37.533798,56.556206 
	C37.984306,57.870174 37.981476,58.758831 37.978645,59.647488 
	C27.994717,59.715645 18.010794,59.783806 7.575173,59.766327 
	C7.097945,58.767704 7.072412,57.854717 7.077754,56.600906 
	C10.432426,56.181931 13.756224,56.103775 17.536144,56.050472 
z"/>
<path fill="#DC7933" opacity="1.000000" stroke="none" 
	d="
M38.374107,59.757492 
	C37.981476,58.758831 37.984306,57.870174 37.982025,56.649529 
	C38.724548,56.205822 39.472176,56.094101 40.836510,55.913296 
	C41.755859,55.669022 41.940880,55.409863 42.008270,55.066723 
	C42.062771,53.356503 42.117271,51.646286 42.507996,49.449051 
	C43.896088,48.974495 44.947952,48.986958 45.999817,48.999420 
	C45.981655,52.279709 45.963493,55.559994 45.539650,59.344772 
	C44.094521,59.976234 43.055073,60.103210 42.015625,60.230186 
	C40.933605,60.109291 39.851589,59.988392 38.374107,59.757492 
z"/>
<path fill="#FDE1BF" opacity="1.000000" stroke="none" 
	d="
M42.013420,60.514404 
	C43.055073,60.103210 44.094521,59.976234 45.521381,59.785225 
	C45.929119,59.944862 45.949448,60.168526 45.953583,61.069405 
	C44.843945,64.756989 46.761208,64.827705 48.930977,65.075249 
	C51.010536,65.312515 53.036076,66.023209 54.698708,66.662613 
	C53.500721,66.931900 52.689381,67.064407 51.878044,67.196915 
	C50.245529,67.199295 48.613014,67.201683 46.168266,67.120010 
	C43.974144,67.042023 42.592251,67.048080 41.106461,67.056572 
	C41.002563,67.059006 40.797745,67.023651 40.797745,67.023651 
	C40.835270,66.854195 40.872799,66.684731 41.231144,66.137039 
	C43.413094,64.686996 43.815041,63.443214 42.002193,61.938419 
	C42.005203,61.558487 42.008209,61.178555 42.013420,60.514404 
z"/>
<path fill="#FCFBF4" opacity="1.000000" stroke="none" 
	d="
M41.668243,61.950207 
	C43.815041,63.443214 43.413094,64.686996 41.276684,65.880707 
	C40.688625,64.900551 40.375847,63.798508 40.030815,62.351753 
	C40.443806,61.992027 40.889050,61.977013 41.668243,61.950207 
z"/>
<path fill="#FCFCF6" opacity="1.000000" stroke="none" 
	d="
M55.085354,66.525841 
	C53.036076,66.023209 51.010536,65.312515 48.930977,65.075249 
	C46.761208,64.827705 44.843945,64.756989 45.977448,61.405441 
	C46.954807,59.066250 48.296780,57.155930 48.752384,55.053528 
	C50.040932,49.107533 47.738201,43.575062 43.363998,42.071426 
	C43.361015,39.757549 44.060791,38.414623 46.738934,40.060822 
	C47.582878,40.579571 49.042198,40.097195 50.686512,40.289787 
	C51.428593,41.000763 51.704029,41.494957 51.956619,42.419525 
	C51.953922,44.315868 51.769524,45.820175 52.035709,47.240013 
	C52.636753,50.445969 55.553364,51.326622 58.117340,49.192696 
	C60.422752,49.155514 62.728165,49.118328 65.481918,49.422813 
	C65.974983,50.167305 66.019699,50.570122 65.782997,51.199093 
	C65.332787,52.609165 65.163994,53.793087 64.998627,54.984383 
	C65.002060,54.991756 65.010635,55.006401 65.010635,55.006401 
	C61.690395,56.615597 60.464844,59.040707 61.285942,62.806709 
	C61.547611,64.006866 60.269703,65.542702 59.042725,66.991638 
	C58.201580,67.092125 58.013973,67.125908 57.487026,67.071609 
	C56.460243,66.830963 55.772797,66.678406 55.085354,66.525841 
z"/>
<path fill="#FAFBF7" opacity="1.000000" stroke="none" 
	d="
M80.070312,74.348640 
	C79.517670,75.037643 78.965019,75.726654 78.265778,76.713982 
	C70.732147,78.053909 70.335846,77.789673 69.906387,71.140427 
	C69.736023,68.192459 69.615921,65.673920 69.791512,62.655285 
	C70.502090,61.579559 70.916992,61.003929 71.331886,60.428303 
	C72.602959,60.437016 73.874031,60.445728 75.538849,60.867310 
	C76.295914,61.723354 76.659241,62.166531 77.022568,62.609707 
	C77.398758,61.995758 77.774948,61.381813 78.151138,60.767868 
	C79.479034,60.609196 80.806938,60.450520 82.520706,60.426697 
	C82.291985,64.699532 81.677399,68.837524 80.809990,73.412453 
	C80.325684,73.948494 80.163399,74.114906 80.070312,74.348640 
z"/>
<path fill="#DB8B4A" opacity="1.000000" stroke="none" 
	d="
M81.075493,88.602196 
	C82.276230,90.898117 83.559547,92.781120 84.445328,94.835526 
	C85.183334,96.547188 85.454865,98.459969 85.932999,100.283676 
	C85.411804,100.446503 84.890610,100.609337 84.369415,100.772163 
	C82.223694,98.144142 80.077972,95.516113 77.623489,92.752686 
	C77.069641,92.151520 76.824547,91.685776 76.314819,90.743553 
	C75.185013,89.335434 74.319847,88.403786 73.454674,87.472137 
	C72.477112,85.003571 68.854538,82.323769 74.646393,80.107971 
	C76.676132,82.719139 78.831032,85.491325 81.075493,88.602196 
z"/>
<path fill="#F8FCFA" opacity="1.000000" stroke="none" 
	d="
M62.117264,84.074181 
	C61.145046,84.043320 60.172825,84.012459 58.736969,83.542038 
	C58.334530,80.408340 58.395729,77.714188 58.456928,75.020042 
	C63.459423,74.498505 67.978210,74.906509 69.516411,81.087097 
	C68.829414,81.737785 67.956673,82.564407 66.705139,83.715836 
	C65.884987,84.028214 65.443626,84.015785 64.963242,83.703049 
	C64.511635,83.086876 64.099045,82.771019 63.686455,82.455162 
	C63.459747,82.982071 63.233040,83.508987 62.784187,84.048302 
	C62.562042,84.060699 62.117264,84.074181 62.117264,84.074181 
z"/>
<path fill="#E8A872" opacity="1.000000" stroke="none" 
	d="
M58.344028,74.603653 
	C58.395729,77.714188 58.334530,80.408340 58.372158,83.542587 
	C58.360905,84.173393 58.250820,84.364105 57.953796,84.827576 
	C57.180645,81.655792 56.175018,78.216896 56.128693,74.765121 
	C56.084255,71.454224 55.862236,68.797142 51.991936,67.552513 
	C52.689381,67.064407 53.500721,66.931900 54.698708,66.662613 
	C55.772797,66.678406 56.460243,66.830963 57.532013,67.391678 
	C58.050774,68.209976 58.185207,68.620125 58.319641,69.030266 
	C58.290134,70.749268 58.260632,72.468262 58.344028,74.603653 
z"/>
<path fill="#F7D8BA" opacity="1.000000" stroke="none" 
	d="
M62.089516,84.481323 
	C62.117264,84.074181 62.562042,84.060699 63.116890,84.053146 
	C64.115242,84.031517 64.558754,84.017441 65.002258,84.003357 
	C65.443626,84.015785 65.884987,84.028214 66.656967,84.058319 
	C67.666054,86.137970 68.344528,88.199936 68.991676,90.653442 
	C67.890327,89.491684 66.820305,87.938377 65.131958,85.487473 
	C64.553558,87.582756 64.171791,88.965736 63.706512,90.733994 
	C63.102592,89.042336 62.582180,86.965401 62.089516,84.481323 
z"/>
<path fill="#FCE0BE" opacity="1.000000" stroke="none" 
	d="
M73.326019,87.876999 
	C74.319847,88.403786 75.185013,89.335434 76.092468,90.595047 
	C75.155624,90.042625 74.176491,89.162247 73.326019,87.876999 
z"/>
<path fill="#F4BE8D" opacity="1.000000" stroke="none" 
	d="
M64.052109,70.226814 
	C64.657829,70.216171 65.218712,70.497795 65.869896,71.092697 
	C65.309219,71.110344 64.658249,70.814713 64.052109,70.226814 
z"/>
<path fill="#FDE1BF" opacity="1.000000" stroke="none" 
	d="
M58.504345,68.828766 
	C58.185207,68.620125 58.050774,68.209976 57.871353,67.479767 
	C58.013973,67.125908 58.201580,67.092125 58.674095,67.040398 
	C58.869022,67.557396 58.779037,68.092323 58.504345,68.828766 
z"/>
<path fill="#F4BE8D" opacity="1.000000" stroke="none" 
	d="
M66.213837,55.649113 
	C66.051598,55.744473 65.889351,55.839836 65.460228,56.024548 
	C65.147621,55.931793 65.101891,55.749695 65.033401,55.286999 
	C65.010635,55.006401 65.002060,54.991756 65.232224,55.038879 
	C65.786995,55.174797 66.037483,55.362503 66.213837,55.649113 
z"/>
<path fill="#F9FCF8" opacity="1.000000" stroke="none" 
	d="
M66.594604,55.653141 
	C66.037483,55.362503 65.786995,55.174797 65.228790,55.031502 
	C65.163994,53.793087 65.332787,52.609165 66.094986,51.164196 
	C67.145187,50.292358 67.601967,49.681568 68.058746,49.070778 
	C68.058746,49.070774 68.417732,48.934082 68.959167,48.887154 
	C71.797585,47.305676 71.611702,46.006176 69.129868,44.924034 
	C69.129868,44.924034 69.065788,44.934231 69.073593,44.595467 
	C69.023949,43.849567 68.966507,43.442429 69.223129,42.817257 
	C72.045166,42.047615 74.553139,41.496006 77.061104,40.944397 
	C77.061104,40.944397 77.022217,40.973801 77.019699,41.339890 
	C77.691246,43.140617 78.365311,44.575253 79.039368,46.009892 
	C80.504135,47.896008 81.968910,49.782124 83.730331,51.820839 
	C84.015732,52.658726 84.004471,53.344017 83.775314,54.506733 
	C83.299995,55.214287 83.042572,55.444408 82.785156,55.674530 
	C81.219261,55.672298 79.653374,55.670067 77.645424,55.424324 
	C77.203369,55.180813 77.066910,54.744709 76.974411,54.425873 
	C75.571327,54.332512 74.260742,54.557991 72.662651,54.861641 
	C71.851784,55.188351 71.328423,55.436890 70.805054,55.685425 
	C69.528496,55.676006 68.251930,55.666588 66.594604,55.653141 
z"/>
<path fill="#FFF4DE" opacity="1.000000" stroke="none" 
	d="
M72.950150,54.783470 
	C74.260742,54.557991 75.571327,54.332512 76.752686,54.562286 
	C76.361450,55.235615 76.099457,55.453697 75.837463,55.671776 
	C75.463737,55.679333 75.090012,55.686890 74.266739,55.502369 
	C73.528175,55.134682 73.239159,54.959076 72.950150,54.783470 
z"/>
<path fill="#FDE9D0" opacity="1.000000" stroke="none" 
	d="
M77.784164,60.573608 
	C77.774948,61.381813 77.398758,61.995758 77.022568,62.609707 
	C76.659241,62.166531 76.295914,61.723354 75.890060,61.016945 
	C76.370750,60.628929 76.893967,60.504139 77.784164,60.573608 
z"/>
<path fill="#F4BE8D" opacity="1.000000" stroke="none" 
	d="
M70.969833,60.326969 
	C70.916992,61.003929 70.502090,61.579559 69.847603,62.274902 
	C69.941261,61.671627 70.274513,60.948631 70.969833,60.326969 
z"/>
<path fill="#F4BE8D" opacity="1.000000" stroke="none" 
	d="
M95.289429,55.827240 
	C96.121605,55.564507 97.368835,55.424244 98.869659,55.495918 
	C97.983665,55.788475 96.844078,55.869091 95.289429,55.827240 
z"/>
<path fill="#F4BE8D" opacity="1.000000" stroke="none" 
	d="
M72.662651,54.861641 
	C73.239159,54.959076 73.528175,55.134682 73.986404,55.496231 
	C73.311646,55.774014 72.467651,55.865864 71.214355,55.821571 
	C71.328423,55.436890 71.851784,55.188351 72.662651,54.861641 
z"/>
<path fill="#F4BE8D" opacity="1.000000" stroke="none" 
	d="
M76.207649,55.746563 
	C76.099457,55.453697 76.361450,55.235615 76.845177,54.881119 
	C77.066910,54.744709 77.203369,55.180813 77.255127,55.402325 
	C77.063866,55.689671 76.820854,55.755508 76.207649,55.746563 
z"/>
<path fill="#F4BE8D" opacity="1.000000" stroke="none" 
	d="
M83.145378,55.758488 
	C83.042572,55.444408 83.299995,55.214287 83.783646,54.848911 
	C84.009880,54.713661 84.115631,55.195438 84.170746,55.434601 
	C83.985764,55.729988 83.745682,55.786217 83.145378,55.758488 
z"/>
<path fill="#F7D3AC" opacity="1.000000" stroke="none" 
	d="
M80.177895,74.739746 
	C80.163399,74.114906 80.325684,73.948494 80.715363,73.757301 
	C81.876884,74.130440 82.880196,74.595665 83.983551,75.381752 
	C82.817543,75.512016 81.551514,75.321434 80.177895,74.739746 
z"/>
<path fill="#FBFCF9" opacity="1.000000" stroke="none" 
	d="
M88.347389,73.486923 
	C88.061287,74.064751 87.554863,74.421280 87.048431,74.777817 
	C86.854424,74.412277 86.660416,74.046738 86.466415,73.681198 
	C87.019966,73.542679 87.573509,73.404160 88.347389,73.486923 
z"/>
<path fill="#FCFBF5" opacity="1.000000" stroke="none" 
	d="
M79.039215,45.609146 
	C78.365311,44.575253 77.691246,43.140617 77.035385,41.330059 
	C77.534683,41.224354 78.015770,41.494568 78.746216,41.885773 
	C79.010078,43.073971 79.024567,44.141186 79.039215,45.609146 
z"/>
<path fill="#FBE3C5" opacity="1.000000" stroke="none" 
	d="
M89.741882,49.298775 
	C89.429230,49.850620 88.802574,50.347198 87.834320,50.765507 
	C88.137772,50.205994 88.782829,49.724754 89.741882,49.298775 
z"/>
<path fill="#D8853E" opacity="1.000000" stroke="none" 
	d="
M75.884354,34.322109 
	C72.163574,34.987244 71.344040,33.573570 73.147202,30.607283 
	C74.598000,28.220661 76.191856,25.921000 77.853958,23.261576 
	C79.328316,21.325298 80.511330,19.529400 82.067184,18.155819 
	C83.187981,17.166330 84.926384,13.529022 86.189026,18.621380 
	C83.560585,22.782921 80.862259,26.572727 78.195839,30.712122 
	C77.505547,32.066032 76.783348,33.070351 75.884354,34.322109 
z"/>
<path fill="#FCFBF5" opacity="1.000000" stroke="none" 
	d="
M77.063431,40.588783 
	C74.553139,41.496006 72.045166,42.047615 68.859055,42.812611 
	C67.450333,42.973701 66.719765,42.921410 65.989197,42.869114 
	C67.637398,40.776081 69.285599,38.683048 70.994629,36.246758 
	C72.116089,36.252655 73.176712,36.601814 74.575737,36.947884 
	C75.515945,37.153236 76.117767,37.361683 76.908737,37.837086 
	C77.087181,38.813751 77.076469,39.523460 77.063431,40.588783 
z"/>
<path fill="#FCFCFA" opacity="1.000000" stroke="none" 
	d="
M52.926792,84.538971 
	C51.975670,85.162819 51.157135,85.357254 49.818958,85.788208 
	C48.846107,86.033737 48.392902,86.042747 47.939697,86.051758 
	C47.939697,86.051758 47.994503,85.997147 47.946392,85.673767 
	C46.235928,83.370743 44.867271,83.164047 44.001957,85.995834 
	C43.861351,86.111488 43.720741,86.227150 43.332264,86.457954 
	C42.715019,85.317894 42.345642,84.062691 42.227753,82.223709 
	C42.319412,80.426834 42.159580,79.213722 41.999752,78.000610 
	C42.329617,76.908791 42.659477,75.816971 42.994164,74.365463 
	C42.998989,74.005768 43.008083,73.983337 43.435341,73.991974 
	C45.572212,74.038536 47.281822,74.076462 49.040634,74.419029 
	C49.713802,75.153229 50.337769,75.582787 51.287926,76.033844 
	C52.049221,76.053665 52.484322,76.051971 52.919422,76.050278 
	C52.966076,78.736702 53.012730,81.423126 52.926792,84.538971 
z"/>
<path fill="#DD8A43" opacity="1.000000" stroke="none" 
	d="
M30.906326,96.932037 
	C30.712179,96.946228 30.547512,96.989273 30.405794,97.071762 
	C28.593885,98.126335 26.785265,99.186562 24.975811,100.245354 
	C25.654644,97.961708 25.966726,95.474052 27.097235,93.441643 
	C28.845829,90.298042 30.977894,87.317345 33.299164,84.564194 
	C34.440102,83.210976 36.370842,82.523666 37.944164,81.535004 
	C38.459076,82.050652 38.973984,82.566307 39.488892,83.081963 
	C36.639229,87.448517 33.789570,91.815079 30.898411,96.528679 
	C30.856911,96.875717 30.946468,96.979210 30.906326,96.932037 
z"/>
<path fill="#DB8A47" opacity="1.000000" stroke="none" 
	d="
M32.707249,77.651192 
	C27.929075,81.094849 23.223192,84.647263 18.321745,87.905472 
	C17.100956,88.716995 15.248685,88.578552 13.686663,88.876747 
	C14.226050,87.404175 14.335081,85.395897 15.381888,84.554955 
	C19.210672,81.479103 23.233482,78.592972 27.451084,76.086044 
	C28.639027,75.379936 30.743139,76.215179 32.571114,76.810043 
	C32.715191,77.276619 32.707249,77.651192 32.707249,77.651192 
z"/>
<path fill="#FCFCFA" opacity="1.000000" stroke="none" 
	d="
M32.812653,77.981064 
	C32.707249,77.651192 32.715191,77.276619 32.775368,77.098930 
	C33.739956,76.790962 34.644367,76.660683 35.769409,76.264465 
	C36.957661,76.435570 37.925282,76.872612 38.946312,77.987022 
	C38.999504,79.107613 38.999283,79.550842 38.999062,79.994072 
	C37.934933,79.997475 36.870800,80.000877 35.244072,79.765564 
	C34.129353,79.349640 33.577225,79.172432 33.025101,78.995232 
	C32.989422,78.767143 32.953739,78.539047 32.812653,77.981064 
z"/>
<path fill="#FCFAF4" opacity="1.000000" stroke="none" 
	d="
M39.269485,80.126007 
	C38.999283,79.550842 38.999504,79.107613 38.999863,78.331886 
	C39.749939,77.999695 40.499882,78.000000 41.624786,78.000458 
	C42.159580,79.213722 42.319412,80.426834 42.214973,81.831017 
	C41.147106,81.434036 40.343506,80.845993 39.269485,80.126007 
z"/>
<path fill="#FCFAF4" opacity="1.000000" stroke="none" 
	d="
M33.041084,79.292206 
	C33.577225,79.172432 34.129353,79.349640 34.845123,79.775589 
	C34.358204,79.879288 33.707634,79.734230 33.041084,79.292206 
z"/>
<path fill="#FADFC2" opacity="1.000000" stroke="none" 
	d="
M41.666378,91.049698 
	C41.402241,93.211807 40.789936,95.424950 39.941948,97.846184 
	C36.903305,94.962090 40.242538,93.293785 41.666378,91.049698 
z"/>
<path fill="#FADFC2" opacity="1.000000" stroke="none" 
	d="
M38.953529,99.181824 
	C39.184559,99.703712 39.072689,100.196442 38.781628,100.867508 
	C38.218567,100.640869 37.834694,100.235878 37.450825,99.830887 
	C37.837425,99.604813 38.224026,99.378738 38.953529,99.181824 
z"/>
<path fill="#FBF8EC" opacity="1.000000" stroke="none" 
	d="
M19.698345,28.275787 
	C19.518152,27.703194 19.360937,27.139400 19.079475,26.301704 
	C20.454412,25.439947 21.953592,24.852091 23.776554,24.108158 
	C25.557411,25.206745 27.068777,26.404663 28.456263,27.732069 
	C29.837212,29.053221 31.093763,30.504398 32.999714,32.060379 
	C34.071564,32.796871 34.548557,33.371555 35.025555,33.946236 
	C35.815323,34.864594 36.605095,35.782955 37.695686,36.835590 
	C36.860615,37.326649 35.724716,37.683434 34.241329,38.003815 
	C30.389668,35.372478 26.885494,32.777554 23.007309,30.269943 
	C22.633299,30.357262 22.275131,30.275810 22.097202,29.836109 
	C21.201351,29.032991 20.483429,28.669573 19.765507,28.306154 
	C19.765507,28.306154 19.721325,28.284590 19.698345,28.275787 
z"/>
<path fill="#D67D36" opacity="1.000000" stroke="none" 
	d="
M35.404041,33.967613 
	C34.548557,33.371555 34.071564,32.796871 33.345894,32.086662 
	C30.207321,27.082811 27.317421,22.214489 24.427322,17.346283 
	C27.527763,16.107759 36.549057,26.361408 38.692596,33.706779 
	C37.694496,33.803570 36.738514,33.896278 35.404041,33.967613 
z"/>
<path fill="#FCFBF6" opacity="1.000000" stroke="none" 
	d="
M40.981194,32.365608 
	C42.801506,32.126263 44.640583,32.258675 46.756924,32.659531 
	C45.216030,33.598660 43.397881,34.269348 41.247734,34.952919 
	C40.943813,34.222984 40.971886,33.480179 40.981194,32.365608 
z"/>
<path fill="#FAD4AE" opacity="1.000000" stroke="none" 
	d="
M57.732559,49.075722 
	C55.553364,51.326622 52.636753,50.445969 52.035709,47.240013 
	C51.769524,45.820175 51.953922,44.315868 52.229244,42.413223 
	C52.706364,41.979488 52.888020,41.982441 53.069675,41.985390 
	C55.011337,43.993507 52.214882,48.908421 57.732559,49.075722 
z"/>
<path fill="#FAD4AE" opacity="1.000000" stroke="none" 
	d="
M51.062176,30.705723 
	C51.563889,30.476017 52.065601,30.246311 52.851585,30.000011 
	C53.167030,30.954464 53.198208,31.925512 52.991768,32.996632 
	C52.493942,33.069752 52.233734,33.042805 51.556946,32.600693 
	C51.114307,31.692259 51.088242,31.198990 51.062176,30.705723 
z"/>
<path fill="#FAD4AE" opacity="1.000000" stroke="none" 
	d="
M65.626724,43.017483 
	C66.719765,42.921410 67.450333,42.973701 68.544983,43.030643 
	C68.966507,43.442429 69.023949,43.849567 69.082458,44.564262 
	C67.732567,44.629833 66.381592,44.387852 64.827423,43.881676 
	C64.837555,43.466942 65.050896,43.316399 65.626724,43.017483 
z"/>
<path fill="#FAD4AE" opacity="1.000000" stroke="none" 
	d="
M69.090225,45.314152 
	C71.611702,46.006176 71.797585,47.305676 69.140884,48.824940 
	C68.870972,47.774525 68.960777,46.739399 69.090225,45.314152 
z"/>
<path fill="#FBE3C5" opacity="1.000000" stroke="none" 
	d="
M53.117706,41.603951 
	C52.888020,41.982441 52.706364,41.979488 52.252090,41.982845 
	C51.704029,41.494957 51.428593,41.000763 51.024597,40.251442 
	C51.362492,39.659424 51.828938,39.322533 52.591763,38.965385 
	C52.980679,39.704254 53.073208,40.463379 53.117706,41.603951 
z"/>
<path fill="#FAD4AE" opacity="1.000000" stroke="none" 
	d="
M67.697769,49.002998 
	C67.601967,49.681568 67.145187,50.292358 66.376404,50.938046 
	C66.019699,50.570122 65.974983,50.167305 65.912613,49.461811 
	C66.375565,49.084499 66.856178,49.009861 67.697769,49.002998 
z"/>
<path fill="#FCFBF5" opacity="1.000000" stroke="none" 
	d="
M62.924713,41.801476 
	C61.949963,41.339298 60.971470,40.517685 59.970947,39.348022 
	C60.939602,39.813995 61.930286,40.628017 62.924713,41.801476 
z"/>
<path fill="#FCFBF5" opacity="1.000000" stroke="none" 
	d="
M60.236183,36.964375 
	C59.917530,36.555588 59.908043,36.111656 59.905956,35.334732 
	C60.454178,35.229691 60.994995,35.457645 61.535820,35.685600 
	C61.205662,36.100143 60.875507,36.514687 60.236183,36.964375 
z"/>
<path fill="#FBF8EC" opacity="1.000000" stroke="none" 
	d="
M32.221706,43.171062 
	C32.419147,42.371197 32.884758,41.795155 33.591614,41.080936 
	C37.002460,42.659241 37.938480,44.498741 33.852016,47.009197 
	C33.333218,45.632614 32.911545,44.513748 32.221706,43.171062 
z"/>
<path fill="#FCFBF6" opacity="1.000000" stroke="none" 
	d="
M50.739517,30.810478 
	C51.088242,31.198990 51.114307,31.692259 51.167740,32.550755 
	C50.375835,32.939953 49.556564,32.963924 48.328346,32.973511 
	C48.751888,32.277828 49.584373,31.596533 50.739517,30.810478 
z"/>
<path fill="#FBDDBD" opacity="1.000000" stroke="none" 
	d="
M28.093672,49.904770 
	C27.904352,49.765625 27.909462,49.594872 28.046841,49.204475 
	C28.305573,49.188580 28.452202,49.383991 28.542501,49.602665 
	C28.561956,49.649784 28.378233,49.780800 28.093672,49.904770 
z"/>
<path fill="#FBDDBD" opacity="1.000000" stroke="none" 
	d="
M22.190926,44.239407 
	C22.965353,44.102547 23.943317,44.231052 24.950733,44.685658 
	C24.118280,44.842762 23.256371,44.673767 22.190926,44.239407 
z"/>
<path fill="#FBDDBD" opacity="1.000000" stroke="none" 
	d="
M25.086346,45.235981 
	C25.302547,45.009472 25.568686,45.111362 25.917549,45.499802 
	C26.042675,45.675755 25.572168,45.714615 25.572168,45.714615 
	C25.572168,45.714615 25.178686,45.453789 25.086346,45.235981 
z"/>
<path fill="#E09558" opacity="1.000000" stroke="none" 
	d="
M46.057045,48.615959 
	C44.947952,48.986958 43.896088,48.974495 42.588783,49.030304 
	C42.931892,47.548321 43.530437,45.998070 44.128983,44.447815 
	C44.790745,45.709377 45.452507,46.970940 46.057045,48.615959 
z"/>
<path fill="#E09558" opacity="1.000000" stroke="none" 
	d="
M41.781227,55.146084 
	C41.940880,55.409863 41.755859,55.669022 41.216751,55.909710 
	C41.073673,55.650314 41.264973,55.400394 41.781227,55.146084 
z"/>
<path fill="#D78243" opacity="1.000000" stroke="none" 
	d="
M23.124378,36.442230 
	C22.954947,35.066772 22.974779,33.969845 22.989712,32.463341 
	C25.711771,34.763496 30.674490,35.528572 30.051607,41.457973 
	C27.805618,39.878902 25.559629,38.299831 23.124378,36.442230 
z"/>
<path fill="#F9DDBC" opacity="1.000000" stroke="none" 
	d="
M19.850163,28.600813 
	C20.483429,28.669573 21.201351,29.032991 21.937290,29.745796 
	C21.281807,29.695278 20.608311,29.295376 19.850163,28.600813 
z"/>
<path fill="#FDE1BF" opacity="1.000000" stroke="none" 
	d="
M58.201187,91.222984 
	C58.388226,91.131844 58.539528,91.305649 58.632763,91.506416 
	C58.666077,91.578156 58.558899,91.715126 58.385933,91.936417 
	C58.218185,91.866524 58.180359,91.682541 58.201187,91.222984 
z"/>
<path fill="#FBFCF3" opacity="1.000000" stroke="none" 
	d="
M42.992504,74.017372 
	C38.687187,73.142021 38.438793,70.562309 40.459763,67.099541 
	C40.797745,67.023651 41.002563,67.059006 41.039722,67.430374 
	C41.427349,69.150665 41.777821,70.499596 42.181587,72.134506 
	C42.492622,72.941437 42.750351,73.462387 43.008080,73.983337 
	C43.008083,73.983337 42.998989,74.005768 42.992504,74.017372 
z"/>
<path fill="#FDE1BF" opacity="1.000000" stroke="none" 
	d="
M43.435341,73.991974 
	C42.750351,73.462387 42.492622,72.941437 42.486633,72.132401 
	C43.489235,71.648415 44.240093,71.452515 44.990955,71.256615 
	C46.788616,71.263031 48.586319,71.263512 50.383923,71.277229 
	C53.299259,71.299492 54.133335,72.792343 53.115715,75.747314 
	C52.484322,76.051971 52.049221,76.053665 51.258602,75.711044 
	C50.265869,74.949280 49.628651,74.531830 48.991436,74.114380 
	C47.281822,74.076462 45.572212,74.038536 43.435341,73.991974 
z"/>
<path fill="#E8A872" opacity="1.000000" stroke="none" 
	d="
M44.872040,70.984970 
	C44.240093,71.452515 43.489235,71.648415 42.433331,71.846413 
	C41.777821,70.499596 41.427349,69.150665 41.143623,67.427940 
	C42.592251,67.048080 43.974144,67.042023 45.761879,67.153946 
	C45.696190,68.419052 45.224655,69.566193 44.872040,70.984970 
z"/>
<path fill="#FADFC2" opacity="1.000000" stroke="none" 
	d="
M44.398132,85.991745 
	C44.867271,83.164047 46.235928,83.370743 47.924881,85.705406 
	C46.899086,86.036171 45.846695,86.011917 44.398132,85.991745 
z"/>
<path fill="#FADFC2" opacity="1.000000" stroke="none" 
	d="
M47.931877,86.430458 
	C48.392902,86.042747 48.846107,86.033737 49.638145,86.055862 
	C49.597759,87.029205 49.218540,87.971390 48.522934,88.988968 
	C48.112385,88.312614 48.018219,87.560890 47.931877,86.430458 
z"/>
<path fill="#FDF9EC" opacity="1.000000" stroke="none" 
	d="
M64.963242,83.703049 
	C64.558754,84.017441 64.115242,84.031517 63.339035,84.040756 
	C63.233040,83.508987 63.459747,82.982071 63.686455,82.455162 
	C64.099045,82.771019 64.511635,83.086876 64.963242,83.703049 
z"/>
<path fill="#FBFCF3" opacity="1.000000" stroke="none" 
	d="
M49.040634,74.419029 
	C49.628651,74.531830 50.265869,74.949280 50.932411,75.689529 
	C50.337769,75.582787 49.713802,75.153229 49.040634,74.419029 
z"/>
</svg>